<svg width="168" height="69" viewBox="0 0 168 69" fill="none" xmlns="http://www.w3.org/2000/svg">
<g id="Logo">
<path id="HABITAT" d="M84.2851 41V24.0898H80.7461V30.957H73.1289V24.0898H69.5898V41H73.1289V33.875H80.7461V41H84.2851ZM98.1718 41H101.934L96.0508 24.0898H91.8906L86.0195 41H89.6523L90.9414 36.8984H96.8828L98.1718 41ZM93.8711 27.3242H93.9531L96.1211 34.25H91.7031L93.8711 27.3242ZM111.156 41C114.766 41 117.004 39.1367 117.004 36.1602C117.004 33.9219 115.316 32.2461 113.02 32.0703V31.9766C114.812 31.707 116.195 30.1602 116.195 28.3086C116.195 25.7188 114.203 24.0898 111.027 24.0898H103.668V41H111.156ZM107.207 26.7266H110.113C111.766 26.7266 112.715 27.5 112.715 28.8594C112.715 30.2891 111.637 31.1211 109.75 31.1211H107.207V26.7266ZM107.207 38.3633V33.4531H110.172C112.258 33.4531 113.395 34.2969 113.395 35.8789C113.395 37.4961 112.293 38.3633 110.254 38.3633H107.207ZM122.559 41V24.0898H119.02V41H122.559ZM132.953 41V27.0078H137.852V24.0898H124.527V27.0078H129.414V41H132.953ZM148.586 41H152.348L146.465 24.0898H142.305L136.434 41H140.066L141.355 36.8984H147.297L148.586 41ZM144.285 27.3242H144.367L146.535 34.25H142.117L144.285 27.3242ZM159.367 41V27.0078H164.266V24.0898H150.941V27.0078H155.828V41H159.367Z" fill="white"/>
<g id="MeshGrid 1">
<g id="I x3D 32 1">
<path d="M27.5816 19.2669C25.862 20.1466 23.9769 20.7864 22.0519 21.4398C21.2509 21.7117 20.4429 21.9859 19.6371 22.2807C18.753 22.6025 17.8883 22.9481 17.0602 23.3374C16.6445 23.5294 16.2445 23.7408 15.8514 23.9569C15.4658 24.1819 15.0833 24.4098 14.7295 24.6651C14.0536 25.1282 13.3012 25.8086 12.8431 26.3823C12.818 26.4139 12.7921 26.4449 12.7662 26.4759C12.7252 26.525 12.6842 26.574 12.6467 26.6254C12.4281 26.9291 12.3916 26.9778 12.3591 27.0286C12.3433 27.0533 12.3284 27.0785 12.294 27.1337C12.1803 27.316 12.1417 27.3749 12.1066 27.4354C12.0684 27.5011 12.0344 27.5689 11.9126 27.7994C11.8937 27.8365 11.888 27.8461 11.8828 27.856C11.8768 27.8677 11.8716 27.8798 11.8468 27.9373C11.7425 28.1784 11.7142 28.2405 11.6904 28.3038C11.6736 28.3486 11.6591 28.3941 11.6216 28.504C11.5837 28.6146 11.5672 28.6596 11.5531 28.7052C11.5331 28.7699 11.5178 28.8356 11.4531 29.0905C11.4415 29.1361 11.4374 29.1503 11.4343 29.1647C11.4312 29.1791 11.429 29.1936 11.421 29.24C11.4106 29.3007 11.4018 29.3516 11.3944 29.3949C11.3597 29.5956 11.3539 29.6295 11.3501 29.6955C11.3235 29.9928 11.3183 30.0369 11.3172 30.0809C11.3167 30.1001 11.3169 30.1193 11.3165 30.1594C11.312 30.5348 11.3135 30.5539 11.3225 30.6642C11.3269 30.7183 11.3331 30.7942 11.3412 30.9447C11.3465 30.9985 11.3497 31.0208 11.3702 31.163C11.3789 31.2233 11.3908 31.3052 11.4072 31.4203C11.4112 31.4433 11.4484 31.6114 11.4774 31.7422C11.4945 31.8194 11.5087 31.8837 11.5115 31.8975C11.5223 31.9352 11.6423 32.3356 11.6536 32.3724C11.7669 32.675 11.7972 32.7605 11.8324 32.8439C11.8608 32.9114 11.8924 32.9776 11.9735 33.1562C11.9827 33.1757 11.9914 33.1952 12.0002 33.2147C12.0147 33.2473 12.0293 33.2798 12.0458 33.3123C12.1104 33.4332 12.1547 33.5163 12.1865 33.5761C12.2512 33.6975 12.2645 33.7226 12.2928 33.772C12.3144 33.808 12.549 34.1886 12.5712 34.2236C12.7815 34.5243 12.8329 34.6011 12.8881 34.6753C12.9316 34.7337 12.9774 34.7905 13.1046 34.9532C13.1997 35.0755 13.2193 35.1009 13.24 35.1254C13.257 35.1456 13.2749 35.1651 13.3361 35.2372C13.5321 35.4653 13.5741 35.5149 13.6181 35.5629C13.6556 35.6037 13.6947 35.6433 13.8314 35.7904C15.8612 37.9579 18.8296 39.6277 21.649 41.2138C22.5474 41.7192 23.4307 42.216 24.2636 42.7178C24.4305 42.8162 24.5943 42.9182 24.7579 43.02C24.8185 43.0578 24.8791 43.0955 24.9398 43.1331C25.0742 43.2169 25.2074 43.3028 25.3406 43.3886C25.4293 43.4458 25.5181 43.5031 25.6072 43.5597C25.6798 43.6089 25.7527 43.6577 25.8256 43.7065C25.9714 43.8041 26.1172 43.9017 26.2598 44.002C26.3238 44.0478 26.3883 44.0932 26.4527 44.1386C26.6025 44.2441 26.7524 44.3496 26.897 44.4608C27.7345 45.0839 28.524 45.7569 29.2224 46.4856C28.5138 45.7627 27.7191 45.098 26.8745 44.4835C26.7327 44.3763 26.5857 44.275 26.4387 44.1737C26.37 44.1264 26.3013 44.079 26.2332 44.0311C26.0948 43.9355 25.9531 43.8428 25.8115 43.75C25.733 43.6986 25.6545 43.6472 25.5765 43.5953C25.4918 43.5425 25.4075 43.4893 25.3233 43.4362C25.1847 43.3489 25.0463 43.2616 24.9062 43.1758C24.837 43.1342 24.768 43.0922 24.699 43.0503C24.5422 42.955 24.3853 42.8596 24.2253 42.7679C23.3241 42.2371 22.4045 41.7322 21.4844 41.2269C20.5416 40.7092 19.5982 40.1911 18.6732 39.6445C16.5101 38.359 14.6853 37.0872 13.1437 35.3334C13.0802 35.26 13.0613 35.2396 13.0432 35.2187C13.0212 35.1934 13.0004 35.1671 12.9024 35.0441C12.7745 34.8835 12.7265 34.8251 12.6807 34.7651C12.6216 34.6875 12.5662 34.6073 12.3467 34.3004C12.3235 34.2662 12.3196 34.26 12.1545 33.9974C12.1261 33.9522 12.0929 33.8995 12.054 33.8376C12.0125 33.7654 12.0017 33.7461 11.7933 33.3658C11.7786 33.338 11.6885 33.1464 11.6258 33.0128C11.596 32.9492 11.5723 32.8988 11.5659 32.8855C11.5426 32.8292 11.5329 32.8043 11.4616 32.6217C11.4394 32.5649 11.4112 32.4928 11.3749 32.3998C11.3608 32.3586 11.3481 32.3167 11.3355 32.2751C11.3316 32.2621 11.3277 32.2491 11.3237 32.2362C11.2606 32.0339 11.2397 31.9713 11.2225 31.9078C11.2055 31.8449 11.192 31.7811 11.1447 31.5806C11.1255 31.4964 11.1191 31.474 11.114 31.4513C11.1079 31.4235 11.1039 31.3952 11.0813 31.2517C11.0755 31.2121 11.069 31.1726 11.0625 31.1329C11.0509 31.0629 11.0394 30.9928 11.0314 30.9225C11.0202 30.768 11.0125 30.6859 11.0071 30.6282C10.9953 30.5028 10.9944 30.4929 10.9931 30.1067C10.993 30.0965 10.9929 30.0864 10.9928 30.0763C10.9924 30.0322 10.992 29.9884 10.9968 29.9448C11.0138 29.72 11.0181 29.6369 11.027 29.5541C11.0369 29.4606 11.0526 29.3674 11.0988 29.0709C11.2065 28.6143 11.2092 28.6061 11.2256 28.5566C11.2279 28.5499 11.2303 28.5425 11.2334 28.533C11.3396 28.2047 11.3505 28.1678 11.3652 28.1322C11.3703 28.1199 11.3758 28.1077 11.386 28.0835C11.4897 27.8319 11.5159 27.7646 11.5468 27.6991C11.5681 27.6539 11.5916 27.6096 11.6444 27.5059C11.705 27.3865 11.7275 27.3399 11.7522 27.2943C11.7849 27.234 11.8213 27.1755 11.9545 26.9531C12.0045 26.87 12.0197 26.8434 12.0364 26.8176C12.0532 26.7917 12.0715 26.7666 12.1283 26.6859C12.5561 26.0716 12.8388 25.7519 13.3905 25.2175C13.7165 24.923 14.0536 24.6368 14.4207 24.3786C14.7796 24.1125 15.1673 23.8738 15.5575 23.6389C15.9553 23.4128 16.3605 23.1932 16.779 22.9916C17.6147 22.5852 18.4844 22.2263 19.3688 21.8911C20.1479 21.5948 20.9377 21.3158 21.7251 21.0376C21.8304 21.0004 21.9356 20.9633 22.0407 20.9261C22.9324 20.6106 23.8203 20.2933 24.688 19.9506C25.5533 19.6066 26.396 19.2359 27.1911 18.8156L27.1906 18.8191C27.3233 18.7495 27.5186 18.7917 27.6278 18.9155C27.7357 19.0387 27.7173 19.1953 27.584 19.2657C27.584 19.2657 27.5821 19.266 27.5816 19.2669Z" fill="white"/>
<path d="M27.5816 19.2669C25.862 20.1466 23.9769 20.7864 22.0519 21.4398C21.2509 21.7117 20.4429 21.9859 19.6371 22.2807C18.753 22.6025 17.8883 22.9481 17.0602 23.3374C16.6445 23.5294 16.2445 23.7408 15.8514 23.9569C15.4658 24.1819 15.0833 24.4098 14.7295 24.6651C14.0536 25.1282 13.3012 25.8086 12.8431 26.3823C12.818 26.4139 12.7921 26.4449 12.7662 26.4759C12.7252 26.525 12.6842 26.574 12.6467 26.6254C12.4281 26.9291 12.3916 26.9778 12.3591 27.0286C12.3433 27.0533 12.3284 27.0785 12.294 27.1337C12.1803 27.316 12.1417 27.3749 12.1066 27.4354C12.0684 27.5011 12.0344 27.5689 11.9126 27.7994C11.8937 27.8365 11.888 27.8461 11.8828 27.856C11.8768 27.8677 11.8716 27.8798 11.8468 27.9373C11.7425 28.1784 11.7142 28.2405 11.6904 28.3038C11.6736 28.3486 11.6591 28.3941 11.6216 28.504C11.5837 28.6146 11.5672 28.6596 11.5531 28.7052C11.5331 28.7699 11.5178 28.8356 11.4531 29.0905C11.4415 29.1361 11.4374 29.1503 11.4343 29.1647C11.4312 29.1791 11.429 29.1936 11.421 29.24C11.4106 29.3007 11.4018 29.3516 11.3944 29.3949C11.3597 29.5956 11.3539 29.6295 11.3501 29.6955C11.3235 29.9928 11.3183 30.0369 11.3172 30.0809C11.3167 30.1001 11.3169 30.1193 11.3165 30.1594C11.312 30.5348 11.3135 30.5539 11.3225 30.6642C11.3269 30.7183 11.3331 30.7942 11.3412 30.9447C11.3465 30.9985 11.3497 31.0208 11.3702 31.163C11.3789 31.2233 11.3908 31.3052 11.4072 31.4203C11.4112 31.4433 11.4484 31.6114 11.4774 31.7422C11.4945 31.8194 11.5087 31.8837 11.5115 31.8975C11.5223 31.9352 11.6423 32.3356 11.6536 32.3724C11.7669 32.675 11.7972 32.7605 11.8324 32.8439C11.8608 32.9114 11.8924 32.9776 11.9735 33.1562C11.9827 33.1757 11.9914 33.1952 12.0002 33.2147C12.0147 33.2473 12.0293 33.2798 12.0458 33.3123C12.1104 33.4332 12.1547 33.5163 12.1865 33.5761C12.2512 33.6975 12.2645 33.7226 12.2928 33.772C12.3144 33.808 12.549 34.1886 12.5712 34.2236C12.7815 34.5243 12.8329 34.6011 12.8881 34.6753C12.9316 34.7337 12.9774 34.7905 13.1046 34.9532C13.1997 35.0755 13.2193 35.1009 13.24 35.1254C13.257 35.1456 13.2749 35.1651 13.3361 35.2372C13.5321 35.4653 13.5741 35.5149 13.6181 35.5629C13.6556 35.6037 13.6947 35.6433 13.8314 35.7904C15.8612 37.9579 18.8296 39.6277 21.649 41.2138C22.5474 41.7192 23.4307 42.216 24.2636 42.7178C24.4305 42.8162 24.5943 42.9182 24.7579 43.02C24.8185 43.0578 24.8791 43.0955 24.9398 43.1331C25.0742 43.2169 25.2074 43.3028 25.3406 43.3886C25.4293 43.4458 25.5181 43.5031 25.6072 43.5597C25.6798 43.6089 25.7527 43.6577 25.8256 43.7065C25.9714 43.8041 26.1172 43.9017 26.2598 44.002C26.3238 44.0478 26.3883 44.0932 26.4527 44.1386C26.6025 44.2441 26.7524 44.3496 26.897 44.4608C27.7345 45.0839 28.524 45.7569 29.2224 46.4856C28.5138 45.7627 27.7191 45.098 26.8745 44.4835C26.7327 44.3763 26.5857 44.275 26.4387 44.1737C26.37 44.1264 26.3013 44.079 26.2332 44.0311C26.0948 43.9355 25.9531 43.8428 25.8115 43.75C25.733 43.6986 25.6545 43.6472 25.5765 43.5953C25.4918 43.5425 25.4075 43.4893 25.3233 43.4362C25.1847 43.3489 25.0463 43.2616 24.9062 43.1758C24.837 43.1342 24.768 43.0922 24.699 43.0503C24.5422 42.955 24.3853 42.8596 24.2253 42.7679C23.3241 42.2371 22.4045 41.7322 21.4844 41.2269C20.5416 40.7092 19.5982 40.1911 18.6732 39.6445C16.5101 38.359 14.6853 37.0872 13.1437 35.3334C13.0802 35.26 13.0613 35.2396 13.0432 35.2187C13.0212 35.1934 13.0004 35.1671 12.9024 35.0441C12.7745 34.8835 12.7265 34.8251 12.6807 34.7651C12.6216 34.6875 12.5662 34.6073 12.3467 34.3004C12.3235 34.2662 12.3196 34.26 12.1545 33.9974C12.1261 33.9522 12.0929 33.8995 12.054 33.8376C12.0125 33.7654 12.0017 33.7461 11.7933 33.3658C11.7786 33.338 11.6885 33.1464 11.6258 33.0128C11.596 32.9492 11.5723 32.8988 11.5659 32.8855C11.5426 32.8292 11.5329 32.8043 11.4616 32.6217C11.4394 32.5649 11.4112 32.4928 11.3749 32.3998C11.3608 32.3586 11.3481 32.3167 11.3355 32.2751C11.3316 32.2621 11.3277 32.2491 11.3237 32.2362C11.2606 32.0339 11.2397 31.9713 11.2225 31.9078C11.2055 31.8449 11.192 31.7811 11.1447 31.5806C11.1255 31.4964 11.1191 31.474 11.114 31.4513C11.1079 31.4235 11.1039 31.3952 11.0813 31.2517C11.0755 31.2121 11.069 31.1726 11.0625 31.1329C11.0509 31.0629 11.0394 30.9928 11.0314 30.9225C11.0202 30.768 11.0125 30.6859 11.0071 30.6282C10.9953 30.5028 10.9944 30.4929 10.9931 30.1067C10.993 30.0965 10.9929 30.0864 10.9928 30.0763C10.9924 30.0322 10.992 29.9884 10.9968 29.9448C11.0138 29.72 11.0181 29.6369 11.027 29.5541C11.0369 29.4606 11.0526 29.3674 11.0988 29.0709C11.2065 28.6143 11.2092 28.6061 11.2256 28.5566C11.2279 28.5499 11.2303 28.5425 11.2334 28.533C11.3396 28.2047 11.3505 28.1678 11.3652 28.1322C11.3703 28.1199 11.3758 28.1077 11.386 28.0835C11.4897 27.8319 11.5159 27.7646 11.5468 27.6991C11.5681 27.6539 11.5916 27.6096 11.6444 27.5059C11.705 27.3865 11.7275 27.3399 11.7522 27.2943C11.7849 27.234 11.8213 27.1755 11.9545 26.9531C12.0045 26.87 12.0197 26.8434 12.0364 26.8176C12.0532 26.7917 12.0715 26.7666 12.1283 26.6859C12.5561 26.0716 12.8388 25.7519 13.3905 25.2175C13.7165 24.923 14.0536 24.6368 14.4207 24.3786C14.7796 24.1125 15.1673 23.8738 15.5575 23.6389C15.9553 23.4128 16.3605 23.1932 16.779 22.9916C17.6147 22.5852 18.4844 22.2263 19.3688 21.8911C20.1479 21.5948 20.9377 21.3158 21.7251 21.0376C21.8304 21.0004 21.9356 20.9633 22.0407 20.9261C22.9324 20.6106 23.8203 20.2933 24.688 19.9506C25.5533 19.6066 26.396 19.2359 27.1911 18.8156L27.1906 18.8191C27.3233 18.7495 27.5186 18.7917 27.6278 18.9155C27.7357 19.0387 27.7173 19.1953 27.584 19.2657C27.584 19.2657 27.5821 19.266 27.5816 19.2669Z" stroke="white"/>
</g>
<g id="I x3D 31 1">
<path d="M29.4449 17.9953C27.6872 19.0171 25.6581 19.8206 23.6842 20.6022C22.084 21.2359 20.5201 21.8552 19.1665 22.5647C18.3502 22.9821 17.5781 23.4474 16.8648 23.9658C16.1516 24.4843 15.5141 25.0685 14.9613 25.7071C14.3875 26.4051 14.2587 26.6322 13.9119 27.2563C13.8815 27.3121 13.6963 27.7015 13.6553 27.8187C13.5515 28.0868 13.533 28.1338 13.518 28.1817C13.5063 28.219 13.4968 28.2569 13.4506 28.4009C13.3917 28.589 13.3909 28.5929 13.386 28.6171C13.3834 28.6295 13.3798 28.6474 13.3665 28.6985C13.3102 28.9364 13.2967 28.9912 13.2868 29.0464C13.2784 29.0939 13.2726 29.1417 13.2446 29.3068C13.2251 29.4277 13.2202 29.4557 13.2172 29.4838C13.2146 29.5079 13.2132 29.5321 13.2049 29.6153C13.1879 29.8063 13.1813 29.8665 13.1782 29.9268C13.1751 29.9874 13.1755 30.048 13.1722 30.2419C13.1719 30.3262 13.1705 30.3502 13.1705 30.3742C13.1704 30.4026 13.1722 30.431 13.1799 30.5591C13.1826 30.6 13.1849 30.6408 13.1871 30.6816C13.1907 30.7471 13.1944 30.8124 13.1998 30.8779C13.2188 31.0185 13.2315 31.1144 13.2404 31.1809C13.2603 31.3304 13.2604 31.3313 13.2662 31.3584C13.275 31.3998 13.2833 31.4408 13.2917 31.4823C13.3516 31.778 13.4167 32.0993 13.6894 32.7961C14.3505 34.3413 15.3541 35.5932 16.6946 36.8956C17.4762 37.6596 18.7465 38.6652 19.7183 39.3558C20.6969 40.0588 21.7145 40.7215 22.733 41.3849C23.4965 41.8822 24.2606 42.3798 25.0092 42.8951C26.758 44.1009 28.4168 45.4019 29.6889 46.9692C28.4033 45.4207 26.7419 44.1394 24.9664 42.9419C24.2106 42.432 23.4387 41.94 22.6662 41.4476C21.6429 40.7954 20.6185 40.1425 19.6295 39.4466C18.6673 38.7772 17.3796 37.7861 16.5514 36.9938C16.4302 36.8787 16.4081 36.8599 16.3867 36.8405C16.3556 36.8122 16.3259 36.7827 15.9949 36.4543C15.2371 35.6771 14.9539 35.2999 14.5264 34.7302L14.5208 34.7228C14.4764 34.6623 14.1862 34.2402 14.1105 34.1089C13.9344 33.8192 13.9029 33.7683 13.8742 33.716C13.852 33.6755 13.8314 33.6341 13.7464 33.4797C13.4777 33.0131 13.1384 32.1641 13.0121 31.5197C12.9945 31.4418 12.9851 31.4031 12.9771 31.3642C12.9617 31.2895 12.9514 31.2137 12.8987 30.8573C12.8912 30.7828 12.8895 30.7621 12.8607 30.3632C12.8594 30.327 12.8596 30.2906 12.8599 30.2541C12.86 30.2359 12.8602 30.2177 12.8601 30.1995C12.8604 29.9983 12.8591 29.9354 12.8614 29.8724C12.8637 29.8099 12.8695 29.7474 12.8842 29.5498C12.8854 29.5341 12.8865 29.5183 12.8876 29.5025C12.8903 29.4644 12.893 29.4262 12.8972 29.3882C12.9022 29.3531 12.9069 29.321 12.9111 29.2917C12.9528 29.0038 12.9565 28.9786 12.9686 28.9119C12.9992 28.7727 13.0197 28.6786 13.0339 28.6138C13.064 28.4755 13.0651 28.4704 13.0728 28.4441C13.0823 28.4113 13.0917 28.3789 13.101 28.3466C13.176 28.0863 13.2504 27.8282 13.4428 27.394C13.4591 27.3585 13.4747 27.3229 13.4903 27.2873C13.5173 27.2257 13.5442 27.1642 13.5748 27.1042C13.9211 26.4576 14.0555 26.2137 14.6295 25.4946C15.1865 24.8311 15.8319 24.2238 16.5514 23.685C17.2714 23.1454 18.0517 22.6621 18.8731 22.2288C19.2806 22.008 19.7021 21.8045 20.1242 21.6025C20.5488 21.4043 20.9772 21.2106 21.4095 21.0239C22.1016 20.7234 22.8022 20.4362 23.5017 20.1495C23.6754 20.0783 23.8491 20.0071 24.0225 19.9358C24.8942 19.5772 25.759 19.2138 26.6012 18.8261C27.4434 18.4384 28.2584 18.0204 29.0289 17.5604L29.0295 17.5595C29.1573 17.4829 29.3548 17.5184 29.4705 17.6385C29.5863 17.7587 29.5764 17.9182 29.4486 17.9947L29.4449 17.9953Z" fill="white"/>
<path d="M29.4449 17.9953C27.6872 19.0171 25.6581 19.8206 23.6842 20.6022C22.084 21.2359 20.5201 21.8552 19.1665 22.5647C18.3502 22.9821 17.5781 23.4474 16.8648 23.9658C16.1516 24.4843 15.5141 25.0685 14.9613 25.7071C14.3875 26.4051 14.2587 26.6322 13.9119 27.2563C13.8815 27.3121 13.6963 27.7015 13.6553 27.8187C13.5515 28.0868 13.533 28.1338 13.518 28.1817C13.5063 28.219 13.4968 28.2569 13.4506 28.4009C13.3917 28.589 13.3909 28.5929 13.386 28.6171C13.3834 28.6295 13.3798 28.6474 13.3665 28.6985C13.3102 28.9364 13.2967 28.9912 13.2868 29.0464C13.2784 29.0939 13.2726 29.1417 13.2446 29.3068C13.2251 29.4277 13.2202 29.4557 13.2172 29.4838C13.2146 29.5079 13.2132 29.5321 13.2049 29.6153C13.1879 29.8063 13.1813 29.8665 13.1782 29.9268C13.1751 29.9874 13.1755 30.048 13.1722 30.2419C13.1719 30.3262 13.1705 30.3502 13.1705 30.3742C13.1704 30.4026 13.1722 30.431 13.1799 30.5591C13.1826 30.6 13.1849 30.6408 13.1871 30.6816C13.1907 30.7471 13.1944 30.8124 13.1998 30.8779C13.2188 31.0185 13.2315 31.1144 13.2404 31.1809C13.2603 31.3304 13.2604 31.3313 13.2662 31.3584C13.275 31.3998 13.2833 31.4408 13.2917 31.4823C13.3516 31.778 13.4167 32.0993 13.6894 32.7961C14.3505 34.3413 15.3541 35.5932 16.6946 36.8956C17.4762 37.6596 18.7465 38.6652 19.7183 39.3558C20.6969 40.0588 21.7145 40.7215 22.733 41.3849C23.4965 41.8822 24.2606 42.3798 25.0092 42.8951C26.758 44.1009 28.4168 45.4019 29.6889 46.9692C28.4033 45.4207 26.7419 44.1394 24.9664 42.9419C24.2106 42.432 23.4387 41.94 22.6662 41.4476C21.6429 40.7954 20.6185 40.1425 19.6295 39.4466C18.6673 38.7772 17.3796 37.7861 16.5514 36.9938C16.4302 36.8787 16.4081 36.8599 16.3867 36.8405C16.3556 36.8122 16.3259 36.7827 15.9949 36.4543C15.2371 35.6771 14.9539 35.2999 14.5264 34.7302L14.5208 34.7228C14.4764 34.6623 14.1862 34.2402 14.1105 34.1089C13.9344 33.8192 13.9029 33.7683 13.8742 33.716C13.852 33.6755 13.8314 33.6341 13.7464 33.4797C13.4777 33.0131 13.1384 32.1641 13.0121 31.5197C12.9945 31.4418 12.9851 31.4031 12.9771 31.3642C12.9617 31.2895 12.9514 31.2137 12.8987 30.8573C12.8912 30.7828 12.8895 30.7621 12.8607 30.3632C12.8594 30.327 12.8596 30.2906 12.8599 30.2541C12.86 30.2359 12.8602 30.2177 12.8601 30.1995C12.8604 29.9983 12.8591 29.9354 12.8614 29.8724C12.8637 29.8099 12.8695 29.7474 12.8842 29.5498C12.8854 29.5341 12.8865 29.5183 12.8876 29.5025C12.8903 29.4644 12.893 29.4262 12.8972 29.3882C12.9022 29.3531 12.9069 29.321 12.9111 29.2917C12.9528 29.0038 12.9565 28.9786 12.9686 28.9119C12.9992 28.7727 13.0197 28.6786 13.0339 28.6138C13.064 28.4755 13.0651 28.4704 13.0728 28.4441C13.0823 28.4113 13.0917 28.3789 13.101 28.3466C13.176 28.0863 13.2504 27.8282 13.4428 27.394C13.4591 27.3585 13.4747 27.3229 13.4903 27.2873C13.5173 27.2257 13.5442 27.1642 13.5748 27.1042C13.9211 26.4576 14.0555 26.2137 14.6295 25.4946C15.1865 24.8311 15.8319 24.2238 16.5514 23.685C17.2714 23.1454 18.0517 22.6621 18.8731 22.2288C19.2806 22.008 19.7021 21.8045 20.1242 21.6025C20.5488 21.4043 20.9772 21.2106 21.4095 21.0239C22.1016 20.7234 22.8022 20.4362 23.5017 20.1495C23.6754 20.0783 23.8491 20.0071 24.0225 19.9358C24.8942 19.5772 25.759 19.2138 26.6012 18.8261C27.4434 18.4384 28.2584 18.0204 29.0289 17.5604L29.0295 17.5595C29.1573 17.4829 29.3548 17.5184 29.4705 17.6385C29.5863 17.7587 29.5764 17.9182 29.4486 17.9947L29.4449 17.9953Z" stroke="white"/>
</g>
<g id="I x3D 30 1">
<path d="M31.2012 16.6006C30.4276 17.1081 29.6141 17.5711 28.777 18.003C27.9386 18.4343 27.0823 18.8387 26.2222 19.2362C25.9426 19.3653 25.6724 19.4895 25.4101 19.61C23.1632 20.6427 21.5 21.4071 19.5766 22.7023L19.44 22.7999L19.1663 22.996C19.0972 23.0466 19.0301 23.0989 18.9628 23.1513C18.9423 23.1673 18.9218 23.1832 18.9013 23.1991C17.4738 24.2931 16.3395 25.6066 15.6482 27.1237C15.6402 27.1432 15.631 27.1651 15.6209 27.1892C15.5132 27.4461 15.2975 27.9605 15.1631 28.6121C14.9688 29.5912 14.9629 30.2175 15.0934 31.159C15.0972 31.1875 15.0987 31.2015 15.1007 31.2154C15.1064 31.2542 15.1162 31.2924 15.1916 31.6471C15.2004 31.6868 15.2021 31.6968 15.2043 31.7065C15.2072 31.7193 15.2112 31.7318 15.2334 31.8096C15.3202 32.1122 15.3349 32.1681 15.3539 32.2227C15.361 32.2431 15.3687 32.2633 15.3809 32.2961C15.4024 32.355 15.4206 32.4052 15.4364 32.4485C15.516 32.6678 15.5308 32.7086 15.564 32.7789C15.7026 33.0959 15.7248 33.1494 15.7499 33.2016C15.7578 33.2182 15.7661 33.2347 15.7785 33.2595C15.8994 33.5035 15.9368 33.5807 15.9768 33.6567C16.0171 33.7329 16.06 33.8079 16.1931 34.049C16.2345 34.1254 16.5045 34.5655 16.5761 34.6677C18.4865 37.5033 21.2967 39.6565 23.8967 41.6487C24.5302 42.1341 25.1513 42.6099 25.7438 43.0838C27.4113 44.418 28.986 45.833 30.1208 47.4676C28.9641 45.8414 27.3718 44.4409 25.6951 43.1266C25.137 42.6897 24.5379 42.2401 23.9174 41.7745C21.1925 39.7297 18.0557 37.3759 16.1721 34.4261C16.1505 34.3911 16.1282 34.3562 16.106 34.3213C16.0615 34.2516 16.017 34.1818 15.9774 34.1113C15.9556 34.073 15.9336 34.0348 15.9117 33.9966C15.8116 33.8223 15.7116 33.6481 15.6251 33.4702C15.6097 33.4401 15.5959 33.4133 15.5836 33.3893C15.5149 33.2556 15.4897 33.2066 15.4646 33.146C15.2973 32.7746 15.2746 32.7257 15.2556 32.6755C15.2432 32.643 15.2323 32.6099 15.1846 32.488C15.1313 32.3475 15.1092 32.2924 15.0897 32.2364C15.0617 32.1563 15.0391 32.0744 14.9379 31.738C14.9317 31.7136 14.8288 31.2592 14.8238 31.2354C14.8208 31.2155 14.8188 31.2021 14.8171 31.1909C14.8097 31.1416 14.809 31.1373 14.76 30.8164C14.6598 29.9349 14.7081 29.5085 14.7695 28.9668C14.7741 28.9256 14.7789 28.8838 14.7836 28.8411C14.7929 28.7823 14.7983 28.7542 14.8324 28.5767C14.843 28.5217 14.8563 28.4523 14.8734 28.3632C15.1208 27.203 15.742 25.9017 16.6726 24.7811C17.2275 24.1043 17.8694 23.4817 18.5806 22.9204C18.6078 22.899 18.6349 22.8776 18.6619 22.8562C18.7237 22.8074 18.7854 22.7586 18.8479 22.711L19.1228 22.508L19.2599 22.407L19.4014 22.3095L19.6838 22.1129C20.0687 21.8595 20.4575 21.6105 20.8596 21.3772C22.2288 20.5722 23.6906 19.879 25.1453 19.1892C25.3959 19.0704 25.6462 18.9517 25.8958 18.8325C26.7459 18.4273 27.5885 18.0157 28.4077 17.5806C29.2256 17.1448 30.0163 16.6811 30.7611 16.1771L30.7617 16.1762C30.8839 16.0935 31.0828 16.1206 31.2053 16.237C31.3278 16.3535 31.3283 16.5155 31.2061 16.5982C31.2052 16.5986 31.2044 16.5992 31.2038 16.5997C31.2027 16.6004 31.202 16.601 31.2012 16.6006Z" fill="white"/>
<path d="M31.2012 16.6006C30.4276 17.1081 29.6141 17.5711 28.777 18.003C27.9386 18.4343 27.0823 18.8387 26.2222 19.2362C25.9426 19.3653 25.6724 19.4895 25.4101 19.61C23.1632 20.6427 21.5 21.4071 19.5766 22.7023L19.44 22.7999L19.1663 22.996C19.0972 23.0466 19.0301 23.0989 18.9628 23.1513C18.9423 23.1673 18.9218 23.1832 18.9013 23.1991C17.4738 24.2931 16.3395 25.6066 15.6482 27.1237C15.6402 27.1432 15.631 27.1651 15.6209 27.1892C15.5132 27.4461 15.2975 27.9605 15.1631 28.6121C14.9688 29.5912 14.9629 30.2175 15.0934 31.159C15.0972 31.1875 15.0987 31.2015 15.1007 31.2154C15.1064 31.2542 15.1162 31.2924 15.1916 31.6471C15.2004 31.6868 15.2021 31.6968 15.2043 31.7065C15.2072 31.7193 15.2112 31.7318 15.2334 31.8096C15.3202 32.1122 15.3349 32.1681 15.3539 32.2227C15.361 32.2431 15.3687 32.2633 15.3809 32.2961C15.4024 32.355 15.4206 32.4052 15.4364 32.4485C15.516 32.6678 15.5308 32.7086 15.564 32.7789C15.7026 33.0959 15.7248 33.1494 15.7499 33.2016C15.7578 33.2182 15.7661 33.2347 15.7785 33.2595C15.8994 33.5035 15.9368 33.5807 15.9768 33.6567C16.0171 33.7329 16.06 33.8079 16.1931 34.049C16.2345 34.1254 16.5045 34.5655 16.5761 34.6677C18.4865 37.5033 21.2967 39.6565 23.8967 41.6487C24.5302 42.1341 25.1513 42.6099 25.7438 43.0838C27.4113 44.418 28.986 45.833 30.1208 47.4676C28.9641 45.8414 27.3718 44.4409 25.6951 43.1266C25.137 42.6897 24.5379 42.2401 23.9174 41.7745C21.1925 39.7297 18.0557 37.3759 16.1721 34.4261C16.1505 34.3911 16.1282 34.3562 16.106 34.3213C16.0615 34.2516 16.017 34.1818 15.9774 34.1113C15.9556 34.073 15.9336 34.0348 15.9117 33.9966C15.8116 33.8223 15.7116 33.6481 15.6251 33.4702C15.6097 33.4401 15.5959 33.4133 15.5836 33.3893C15.5149 33.2556 15.4897 33.2066 15.4646 33.146C15.2973 32.7746 15.2746 32.7257 15.2556 32.6755C15.2432 32.643 15.2323 32.6099 15.1846 32.488C15.1313 32.3475 15.1092 32.2924 15.0897 32.2364C15.0617 32.1563 15.0391 32.0744 14.9379 31.738C14.9317 31.7136 14.8288 31.2592 14.8238 31.2354C14.8208 31.2155 14.8188 31.2021 14.8171 31.1909C14.8097 31.1416 14.809 31.1373 14.76 30.8164C14.6598 29.9349 14.7081 29.5085 14.7695 28.9668C14.7741 28.9256 14.7789 28.8838 14.7836 28.8411C14.7929 28.7823 14.7983 28.7542 14.8324 28.5767C14.843 28.5217 14.8563 28.4523 14.8734 28.3632C15.1208 27.203 15.742 25.9017 16.6726 24.7811C17.2275 24.1043 17.8694 23.4817 18.5806 22.9204C18.6078 22.899 18.6349 22.8776 18.6619 22.8562C18.7237 22.8074 18.7854 22.7586 18.8479 22.711L19.1228 22.508L19.2599 22.407L19.4014 22.3095L19.6838 22.1129C20.0687 21.8595 20.4575 21.6105 20.8596 21.3772C22.2288 20.5722 23.6906 19.879 25.1453 19.1892C25.3959 19.0704 25.6462 18.9517 25.8958 18.8325C26.7459 18.4273 27.5885 18.0157 28.4077 17.5806C29.2256 17.1448 30.0163 16.6811 30.7611 16.1771L30.7617 16.1762C30.8839 16.0935 31.0828 16.1206 31.2053 16.237C31.3278 16.3535 31.3283 16.5155 31.2061 16.5982C31.2052 16.5986 31.2044 16.5992 31.2038 16.5997C31.2027 16.6004 31.202 16.601 31.2012 16.6006Z" stroke="white"/>
</g>
<g id="I x3D 29 1">
<path d="M32.915 15.1547C32.165 15.7051 31.3737 16.2151 30.5587 16.6965C29.7431 17.1764 28.9051 17.6308 28.0639 18.0772C27.7664 18.2349 27.4746 18.3887 27.1882 18.5396C24.3164 20.0533 21.9847 21.2823 19.8712 23.3073C19.5601 23.6216 19.2546 23.94 18.9812 24.279C18.5692 24.7654 18.1355 25.4102 17.8815 25.8768C17.6046 26.3873 17.5214 26.5884 17.3946 26.8948C17.3764 26.9387 17.3573 26.9848 17.3367 27.0343C17.2431 27.3001 17.2092 27.392 17.1792 27.4849C17.149 27.5785 17.1228 27.6731 17.0436 27.9476C16.8675 28.7211 16.775 29.2073 16.8012 30.1917C16.8063 30.3449 16.8068 30.3717 16.8093 30.3982C16.8112 30.419 16.8143 30.4397 16.8216 30.5209C16.8475 30.7803 16.8527 30.8402 16.8616 30.8995C16.8693 30.9511 16.8799 31.0023 16.9094 31.1839C16.9214 31.2547 16.9267 31.2899 16.9332 31.325C16.9465 31.3973 16.9647 31.4686 17.0554 31.8475C17.3927 33.0584 18.0973 34.4204 18.7888 35.4021C19.5677 36.5757 20.7454 37.8794 21.7813 38.9402C22.7759 39.9728 23.8616 40.9464 24.9484 41.921C25.4533 42.3738 25.9584 42.8269 26.4548 43.2861C28.0245 44.7414 29.5126 46.2675 30.5196 47.9778C29.4899 46.2744 27.9823 44.7605 26.4001 43.3249C25.8943 42.866 25.3841 42.4178 24.8747 41.9703C24.1807 41.3606 23.4882 40.7522 22.8104 40.1199C21.6031 38.9918 20.472 37.7887 20.0449 37.289C18.8709 35.9398 17.8469 34.5279 17.154 32.8734C17.151 32.8659 17.1433 32.8464 17.1325 32.8192C17.0829 32.6938 16.9688 32.4053 16.9582 32.37C16.9349 32.2994 16.9154 32.2403 16.8989 32.1905C16.8196 31.9505 16.8113 31.9257 16.7927 31.8611C16.694 31.4742 16.6742 31.4004 16.6596 31.3256C16.6524 31.2891 16.6465 31.2525 16.6332 31.1792C16.6 30.9924 16.5884 30.9382 16.5796 30.8835C16.5696 30.8212 16.5633 30.7583 16.5332 30.4985C16.5244 30.4146 16.5208 30.3929 16.5184 30.371C16.5153 30.3433 16.5142 30.3153 16.507 30.16C16.4993 29.9742 16.4951 29.9193 16.4937 29.8643C16.4922 29.802 16.4942 29.7396 16.4988 29.4874C16.4994 29.4672 16.4997 29.4467 16.4999 29.4262C16.5004 29.3907 16.5009 29.355 16.5031 29.3198C16.5111 29.2248 16.5173 29.1513 16.5221 29.0934C16.5377 28.9083 16.5398 28.8822 16.5458 28.8225C16.5632 28.7038 16.5759 28.6166 16.5853 28.5517C16.6116 28.3713 16.6126 28.364 16.6191 28.3325L16.6293 28.2839C16.7473 27.7207 16.7681 27.6212 17.0066 26.909C17.2743 26.2334 17.3803 25.9766 17.8723 25.145C18.416 24.3004 18.839 23.7861 19.5362 23.0632C21.6487 20.9792 24.0003 19.701 26.8292 18.1633C27.1186 18.006 27.413 17.846 27.7126 17.6821C28.5437 17.2279 29.3654 16.7675 30.163 16.2845C30.9593 15.8008 31.7277 15.29 32.4519 14.7435L32.4525 14.7426C32.5702 14.6544 32.7688 14.6734 32.8987 14.7876C33.0273 14.9012 33.0377 15.064 32.9193 15.1532C32.9168 15.1519 32.9156 15.1537 32.915 15.1547Z" fill="white"/>
<path d="M32.915 15.1547C32.165 15.7051 31.3737 16.2151 30.5587 16.6965C29.7431 17.1764 28.9051 17.6308 28.0639 18.0772C27.7664 18.2349 27.4746 18.3887 27.1882 18.5396C24.3164 20.0533 21.9847 21.2823 19.8712 23.3073C19.5601 23.6216 19.2546 23.94 18.9812 24.279C18.5692 24.7654 18.1355 25.4102 17.8815 25.8768C17.6046 26.3873 17.5214 26.5884 17.3946 26.8948C17.3764 26.9387 17.3573 26.9848 17.3367 27.0343C17.2431 27.3001 17.2092 27.392 17.1792 27.4849C17.149 27.5785 17.1228 27.6731 17.0436 27.9476C16.8675 28.7211 16.775 29.2073 16.8012 30.1917C16.8063 30.3449 16.8068 30.3717 16.8093 30.3982C16.8112 30.419 16.8143 30.4397 16.8216 30.5209C16.8475 30.7803 16.8527 30.8402 16.8616 30.8995C16.8693 30.9511 16.8799 31.0023 16.9094 31.1839C16.9214 31.2547 16.9267 31.2899 16.9332 31.325C16.9465 31.3973 16.9647 31.4686 17.0554 31.8475C17.3927 33.0584 18.0973 34.4204 18.7888 35.4021C19.5677 36.5757 20.7454 37.8794 21.7813 38.9402C22.7759 39.9728 23.8616 40.9464 24.9484 41.921C25.4533 42.3738 25.9584 42.8269 26.4548 43.2861C28.0245 44.7414 29.5126 46.2675 30.5196 47.9778C29.4899 46.2744 27.9823 44.7605 26.4001 43.3249C25.8943 42.866 25.3841 42.4178 24.8747 41.9703C24.1807 41.3606 23.4882 40.7522 22.8104 40.1199C21.6031 38.9918 20.472 37.7887 20.0449 37.289C18.8709 35.9398 17.8469 34.5279 17.154 32.8734C17.151 32.8659 17.1433 32.8464 17.1325 32.8192C17.0829 32.6938 16.9688 32.4053 16.9582 32.37C16.9349 32.2994 16.9154 32.2403 16.8989 32.1905C16.8196 31.9505 16.8113 31.9257 16.7927 31.8611C16.694 31.4742 16.6742 31.4004 16.6596 31.3256C16.6524 31.2891 16.6465 31.2525 16.6332 31.1792C16.6 30.9924 16.5884 30.9382 16.5796 30.8835C16.5696 30.8212 16.5633 30.7583 16.5332 30.4985C16.5244 30.4146 16.5208 30.3929 16.5184 30.371C16.5153 30.3433 16.5142 30.3153 16.507 30.16C16.4993 29.9742 16.4951 29.9193 16.4937 29.8643C16.4922 29.802 16.4942 29.7396 16.4988 29.4874C16.4994 29.4672 16.4997 29.4467 16.4999 29.4262C16.5004 29.3907 16.5009 29.355 16.5031 29.3198C16.5111 29.2248 16.5173 29.1513 16.5221 29.0934C16.5377 28.9083 16.5398 28.8822 16.5458 28.8225C16.5632 28.7038 16.5759 28.6166 16.5853 28.5517C16.6116 28.3713 16.6126 28.364 16.6191 28.3325L16.6293 28.2839C16.7473 27.7207 16.7681 27.6212 17.0066 26.909C17.2743 26.2334 17.3803 25.9766 17.8723 25.145C18.416 24.3004 18.839 23.7861 19.5362 23.0632C21.6487 20.9792 24.0003 19.701 26.8292 18.1633C27.1186 18.006 27.413 17.846 27.7126 17.6821C28.5437 17.2279 29.3654 16.7675 30.163 16.2845C30.9593 15.8008 31.7277 15.29 32.4519 14.7435L32.4525 14.7426C32.5702 14.6544 32.7688 14.6734 32.8987 14.7876C33.0273 14.9012 33.0377 15.064 32.9193 15.1532C32.9168 15.1519 32.9156 15.1537 32.915 15.1547Z" stroke="white"/>
</g>
<g id="I x3D 28 1">
<path d="M34.6467 13.7225C33.9168 14.3165 33.1454 14.8726 32.3492 15.4018C31.5522 15.9294 30.7335 16.4331 29.9083 16.9283C29.575 17.1283 29.2459 17.3243 28.9209 17.5178C26.4724 18.9758 24.2617 20.2921 22.3245 22.1101C22.2075 22.2159 22.0977 22.3267 21.9877 22.4378C21.9383 22.4877 21.8888 22.5376 21.8386 22.5872C21.6209 22.8057 21.1506 23.3323 20.9484 23.5953C20.8212 23.7558 20.7806 23.806 20.7415 23.8573C20.7025 23.9085 20.6651 23.9608 20.5447 24.1254C20.5066 24.1771 20.4869 24.2032 20.4678 24.2296C20.4263 24.287 20.3875 24.3461 20.1694 24.6716C19.7245 25.3858 19.5478 25.7436 19.2592 26.4155C19.2186 26.5033 19.053 26.9548 19.03 27.028C18.9773 27.2056 18.9527 27.2806 18.9357 27.3324C18.9022 27.4345 18.8984 27.4462 18.7672 27.9742C18.758 28.0225 18.7494 28.0674 18.7413 28.1096C18.6531 28.5697 18.6263 28.7093 18.5754 29.4466C18.5731 29.4737 18.5731 29.4762 18.5725 29.6259C18.5723 29.6956 18.5719 29.7974 18.5711 29.9485C18.572 30.1509 18.6216 30.814 18.6859 31.1311L18.7526 31.4707C18.7821 31.6228 18.909 32.1006 18.9856 32.3187C19.8489 35.0754 21.8142 37.5756 23.8846 39.9816L24.419 40.5746C25.212 41.4269 25.6923 41.9293 26.1196 42.3762C26.4625 42.7349 26.7712 43.0578 27.1799 43.4972C28.6419 45.0695 30.0223 46.7069 30.8772 48.4998C29.9975 46.7115 28.5963 45.0857 27.1198 43.5309C26.6985 43.0871 26.3264 42.706 25.9491 42.3194C25.3227 41.6776 24.6817 41.0209 23.7766 40.038C21.2753 37.1935 19.3904 34.7704 18.5054 31.5609C18.4931 31.5024 18.4822 31.4503 18.4724 31.4037C18.394 31.0311 18.3909 31.0168 18.3832 30.9514C18.3752 30.8916 18.3672 30.8361 18.3594 30.782C18.3183 30.4962 18.2824 30.2467 18.2762 29.5686C18.2765 29.4902 18.2752 29.4741 18.275 29.458C18.2746 29.4358 18.276 29.4135 18.286 29.2275C18.2969 29.0351 18.2986 28.9779 18.303 28.9207C18.3079 28.8577 18.3161 28.7948 18.3436 28.5516C18.4517 27.6135 18.8043 26.4597 19.1932 25.6723C19.4508 25.1022 19.7732 24.5785 20.1052 24.0686C20.1676 23.9811 20.1825 23.9602 20.2133 23.9169C20.2426 23.8757 20.2863 23.8141 20.3993 23.6555C20.7907 23.1315 21.2232 22.6328 21.4976 22.3487C21.6384 22.2057 21.6913 22.1497 21.7275 22.1115C21.7958 22.0392 21.8044 22.0301 22.2326 21.6168C24.2392 19.7938 26.1186 18.6415 28.4757 17.1963C28.8181 16.9863 29.1705 16.7702 29.5349 16.545C30.3481 16.0421 31.1518 15.5331 31.9306 15.0023C32.7082 14.4708 33.4577 13.9147 34.1616 13.3246L34.1622 13.3236C34.2742 13.2292 34.4743 13.2423 34.6096 13.352C34.745 13.4617 34.763 13.6266 34.651 13.721C34.6496 13.7208 34.6486 13.7211 34.6479 13.7215C34.647 13.7219 34.6467 13.7225 34.6467 13.7225Z" fill="white"/>
<path d="M34.6467 13.7225C33.9168 14.3165 33.1454 14.8726 32.3492 15.4018C31.5522 15.9294 30.7335 16.4331 29.9083 16.9283C29.575 17.1283 29.2459 17.3243 28.9209 17.5178C26.4724 18.9758 24.2617 20.2921 22.3245 22.1101C22.2075 22.2159 22.0977 22.3267 21.9877 22.4378C21.9383 22.4877 21.8888 22.5376 21.8386 22.5872C21.6209 22.8057 21.1506 23.3323 20.9484 23.5953C20.8212 23.7558 20.7806 23.806 20.7415 23.8573C20.7025 23.9085 20.6651 23.9608 20.5447 24.1254C20.5066 24.1771 20.4869 24.2032 20.4678 24.2296C20.4263 24.287 20.3875 24.3461 20.1694 24.6716C19.7245 25.3858 19.5478 25.7436 19.2592 26.4155C19.2186 26.5033 19.053 26.9548 19.03 27.028C18.9773 27.2056 18.9527 27.2806 18.9357 27.3324C18.9022 27.4345 18.8984 27.4462 18.7672 27.9742C18.758 28.0225 18.7494 28.0674 18.7413 28.1096C18.6531 28.5697 18.6263 28.7093 18.5754 29.4466C18.5731 29.4737 18.5731 29.4762 18.5725 29.6259C18.5723 29.6956 18.5719 29.7974 18.5711 29.9485C18.572 30.1509 18.6216 30.814 18.6859 31.1311L18.7526 31.4707C18.7821 31.6228 18.909 32.1006 18.9856 32.3187C19.8489 35.0754 21.8142 37.5756 23.8846 39.9816L24.419 40.5746C25.212 41.4269 25.6923 41.9293 26.1196 42.3762C26.4625 42.7349 26.7712 43.0578 27.1799 43.4972C28.6419 45.0695 30.0223 46.7069 30.8772 48.4998C29.9975 46.7115 28.5963 45.0857 27.1198 43.5309C26.6985 43.0871 26.3264 42.706 25.9491 42.3194C25.3227 41.6776 24.6817 41.0209 23.7766 40.038C21.2753 37.1935 19.3904 34.7704 18.5054 31.5609C18.4931 31.5024 18.4822 31.4503 18.4724 31.4037C18.394 31.0311 18.3909 31.0168 18.3832 30.9514C18.3752 30.8916 18.3672 30.8361 18.3594 30.782C18.3183 30.4962 18.2824 30.2467 18.2762 29.5686C18.2765 29.4902 18.2752 29.4741 18.275 29.458C18.2746 29.4358 18.276 29.4135 18.286 29.2275C18.2969 29.0351 18.2986 28.9779 18.303 28.9207C18.3079 28.8577 18.3161 28.7948 18.3436 28.5516C18.4517 27.6135 18.8043 26.4597 19.1932 25.6723C19.4508 25.1022 19.7732 24.5785 20.1052 24.0686C20.1676 23.9811 20.1825 23.9602 20.2133 23.9169C20.2426 23.8757 20.2863 23.8141 20.3993 23.6555C20.7907 23.1315 21.2232 22.6328 21.4976 22.3487C21.6384 22.2057 21.6913 22.1497 21.7275 22.1115C21.7958 22.0392 21.8044 22.0301 22.2326 21.6168C24.2392 19.7938 26.1186 18.6415 28.4757 17.1963C28.8181 16.9863 29.1705 16.7702 29.5349 16.545C30.3481 16.0421 31.1518 15.5331 31.9306 15.0023C32.7082 14.4708 33.4577 13.9147 34.1616 13.3246L34.1622 13.3236C34.2742 13.2292 34.4743 13.2423 34.6096 13.352C34.745 13.4617 34.763 13.6266 34.651 13.721C34.6496 13.7208 34.6486 13.7211 34.6479 13.7215C34.647 13.7219 34.6467 13.7225 34.6467 13.7225Z" stroke="white"/>
</g>
<g id="I x3D 27 1">
<path d="M36.4744 12.3709C35.7559 13.0016 34.9959 13.5967 34.2146 14.1694C33.4321 14.7414 32.6271 15.2904 31.8175 15.8332C31.5009 16.0452 31.1816 16.2572 30.8612 16.4701C27.1968 18.9038 23.3772 21.4406 21.5055 25.2502C20.561 27.1665 20.2755 28.9549 20.4665 30.836C20.4692 30.8612 20.4718 30.8863 20.4743 30.9115C20.4835 31.0022 20.4927 31.0929 20.5088 31.1841C20.5168 31.2334 20.5245 31.2827 20.5323 31.3319C20.561 31.5153 20.5898 31.6987 20.6345 31.8818C21.2684 34.7962 22.9156 37.2616 24.8856 39.9421C25.4799 40.7184 26.0761 41.4619 26.6566 42.1859C28.531 44.5233 30.2421 46.6571 31.1975 49.0333C30.2105 46.6633 28.4762 44.5469 26.571 42.222C25.9815 41.5026 25.3757 40.7633 24.7705 39.9903C21.474 35.6048 18.4346 30.8651 21.1689 25.1021C23.0041 21.2218 26.7376 18.6665 30.5317 16.0696C30.8284 15.8666 31.1254 15.6633 31.4218 15.4591C32.2193 14.9087 33.0105 14.3551 33.776 13.7805C34.5403 13.2052 35.2791 12.6091 35.9745 11.9827L35.9751 11.9818C36.0827 11.8844 36.2842 11.8915 36.4221 11.9987C36.5606 12.105 36.5862 12.272 36.4774 12.3688C36.4768 12.3697 36.4744 12.3709 36.4744 12.3709Z" fill="white"/>
<path d="M36.4744 12.3709C35.7559 13.0016 34.9959 13.5967 34.2146 14.1694C33.4321 14.7414 32.6271 15.2904 31.8175 15.8332C31.5009 16.0452 31.1816 16.2572 30.8612 16.4701C27.1968 18.9038 23.3772 21.4406 21.5055 25.2502C20.561 27.1665 20.2755 28.9549 20.4665 30.836C20.4692 30.8612 20.4718 30.8863 20.4743 30.9115C20.4835 31.0022 20.4927 31.0929 20.5088 31.1841C20.5168 31.2334 20.5245 31.2827 20.5323 31.3319C20.561 31.5153 20.5898 31.6987 20.6345 31.8818C21.2684 34.7962 22.9156 37.2616 24.8856 39.9421C25.4799 40.7184 26.0761 41.4619 26.6566 42.1859C28.531 44.5233 30.2421 46.6571 31.1975 49.0333C30.2105 46.6633 28.4762 44.5469 26.571 42.222C25.9815 41.5026 25.3757 40.7633 24.7705 39.9903C21.474 35.6048 18.4346 30.8651 21.1689 25.1021C23.0041 21.2218 26.7376 18.6665 30.5317 16.0696C30.8284 15.8666 31.1254 15.6633 31.4218 15.4591C32.2193 14.9087 33.0105 14.3551 33.776 13.7805C34.5403 13.2052 35.2791 12.6091 35.9745 11.9827L35.9751 11.9818C36.0827 11.8844 36.2842 11.8915 36.4221 11.9987C36.5606 12.105 36.5862 12.272 36.4774 12.3688C36.4768 12.3697 36.4744 12.3709 36.4744 12.3709Z" stroke="white"/>
</g>
<g id="I x3D 26 1">
<path d="M38.4535 11.1794C37.7402 11.8436 36.989 12.4766 36.2165 13.0897C35.1309 13.9502 33.9888 14.7807 32.8481 15.6102C31.5751 16.536 30.3036 17.4607 29.114 18.4244C27.7629 19.5116 26.779 20.4593 25.9419 21.3659C24.9018 22.5433 24.498 23.1187 23.8515 24.174C23.7992 24.2676 23.7562 24.3444 23.7206 24.408C23.5662 24.684 23.5513 24.7108 23.5183 24.7799C22.0902 27.5453 21.8863 30.215 22.5809 32.959C23.0933 34.9091 23.9696 36.6852 25.0699 38.5869C26.0564 40.2995 26.7812 41.3749 27.5995 42.589C27.8977 43.0315 28.2084 43.4925 28.5488 44.0095C29.7404 45.8211 30.8382 47.6519 31.4762 49.5754C30.6597 47.215 29.2674 45.1829 27.6999 42.8951C26.5545 41.2234 25.3156 39.4151 24.1394 37.2425C23.3599 35.8025 22.764 34.4797 22.346 32.9679C20.7086 26.8401 23.9227 22.1073 28.7452 18.1209C29.9232 17.1399 31.1625 16.2139 32.3988 15.2902C32.7448 15.0316 33.0907 14.7732 33.4349 14.5138C34.2217 13.9209 35.0028 13.3236 35.7582 12.708C36.5137 12.0923 37.2454 11.4579 37.9367 10.7962L37.9373 10.7953C38.0422 10.6945 38.2435 10.6984 38.3859 10.803C38.5282 10.9075 38.5577 11.0745 38.4528 11.1752C38.456 11.1782 38.4541 11.1784 38.4535 11.1794Z" fill="white"/>
<path d="M38.4535 11.1794C37.7402 11.8436 36.989 12.4766 36.2165 13.0897C35.1309 13.9502 33.9888 14.7807 32.8481 15.6102C31.5751 16.536 30.3036 17.4607 29.114 18.4244C27.7629 19.5116 26.779 20.4593 25.9419 21.3659C24.9018 22.5433 24.498 23.1187 23.8515 24.174C23.7992 24.2676 23.7562 24.3444 23.7206 24.408C23.5662 24.684 23.5513 24.7108 23.5183 24.7799C22.0902 27.5453 21.8863 30.215 22.5809 32.959C23.0933 34.9091 23.9696 36.6852 25.0699 38.5869C26.0564 40.2995 26.7812 41.3749 27.5995 42.589C27.8977 43.0315 28.2084 43.4925 28.5488 44.0095C29.7404 45.8211 30.8382 47.6519 31.4762 49.5754C30.6597 47.215 29.2674 45.1829 27.6999 42.8951C26.5545 41.2234 25.3156 39.4151 24.1394 37.2425C23.3599 35.8025 22.764 34.4797 22.346 32.9679C20.7086 26.8401 23.9227 22.1073 28.7452 18.1209C29.9232 17.1399 31.1625 16.2139 32.3988 15.2902C32.7448 15.0316 33.0907 14.7732 33.4349 14.5138C34.2217 13.9209 35.0028 13.3236 35.7582 12.708C36.5137 12.0923 37.2454 11.4579 37.9367 10.7962L37.9373 10.7953C38.0422 10.6945 38.2435 10.6984 38.3859 10.803C38.5282 10.9075 38.5577 11.0745 38.4528 11.1752C38.456 11.1782 38.4541 11.1784 38.4535 11.1794Z" stroke="white"/>
</g>
<g id="I x3D 25 1">
<path d="M40.619 10.239C39.1976 11.632 37.6301 12.9059 36.0385 14.1481C35.6785 14.4299 35.3106 14.7149 34.9378 15.0037C29.0815 19.5406 21.9972 25.0288 24.5184 34.2377C24.6545 34.7282 24.8107 35.2166 24.9841 35.7049C25.3351 36.6801 25.7535 37.6486 26.2053 38.6103C26.9962 40.304 27.8272 41.8043 28.6089 43.2156C29.9331 45.6063 31.1159 47.7417 31.7224 50.1297C31.0856 47.7473 29.8757 45.6182 28.5198 43.2321C27.7204 41.8254 26.8703 40.3294 26.0569 38.6396C25.5918 37.6773 25.1588 36.7076 24.7924 35.7269C24.6102 35.2365 24.4463 34.7441 24.3025 34.2496C23.649 31.9744 23.5972 30.1824 23.872 28.36C23.9126 28.0502 24.1009 27.22 24.1856 26.956C25.2641 23.2238 27.8532 20.3032 30.9373 17.6048C32.0897 16.5996 33.2944 15.6401 34.4967 14.6825C34.8693 14.3858 35.2416 14.0893 35.612 13.7917C37.1792 12.5342 38.7136 11.2533 40.0928 9.86494C40.1963 9.76158 40.3961 9.76158 40.5422 9.86429C40.6878 9.96796 40.7219 10.134 40.6196 10.2381L40.619 10.239Z" fill="white"/>
<path d="M40.619 10.239C39.1976 11.632 37.6301 12.9059 36.0385 14.1481C35.6785 14.4299 35.3106 14.7149 34.9378 15.0037C29.0815 19.5406 21.9972 25.0288 24.5184 34.2377C24.6545 34.7282 24.8107 35.2166 24.9841 35.7049C25.3351 36.6801 25.7535 37.6486 26.2053 38.6103C26.9962 40.304 27.8272 41.8043 28.6089 43.2156C29.9331 45.6063 31.1159 47.7417 31.7224 50.1297C31.0856 47.7473 29.8757 45.6182 28.5198 43.2321C27.7204 41.8254 26.8703 40.3294 26.0569 38.6396C25.5918 37.6773 25.1588 36.7076 24.7924 35.7269C24.6102 35.2365 24.4463 34.7441 24.3025 34.2496C23.649 31.9744 23.5972 30.1824 23.872 28.36C23.9126 28.0502 24.1009 27.22 24.1856 26.956C25.2641 23.2238 27.8532 20.3032 30.9373 17.6048C32.0897 16.5996 33.2944 15.6401 34.4967 14.6825C34.8693 14.3858 35.2416 14.0893 35.612 13.7917C37.1792 12.5342 38.7136 11.2533 40.0928 9.86494C40.1963 9.76158 40.3961 9.76158 40.5422 9.86429C40.6878 9.96796 40.7219 10.134 40.6196 10.2381L40.619 10.239Z" stroke="white"/>
</g>
<g id="I x3D 24 1">
<path d="M42.9694 9.63908C41.5373 11.0786 39.9644 12.4081 38.3678 13.7075C37.9832 14.0202 37.5961 14.3325 37.2083 14.6453C31.5239 19.2307 25.6986 23.9298 25.7493 31.5997C25.7593 32.395 25.8569 33.3593 26.0168 34.2236C26.0474 34.406 26.0858 34.589 26.124 34.7716C26.1384 34.8402 26.1528 34.9087 26.1667 34.9771C26.182 35.0417 26.1969 35.1063 26.2119 35.171C26.2552 35.3578 26.2985 35.5449 26.3491 35.731C26.476 36.2333 26.6252 36.7358 26.7857 37.2365C26.9443 37.7375 27.1246 38.237 27.3099 38.7366C27.9268 40.3838 28.6119 41.8926 29.2684 43.3386C30.407 45.8464 31.4599 48.1653 31.9233 50.69C31.4261 48.1655 30.3448 45.8541 29.1743 43.3518C28.4994 41.909 27.7948 40.4028 27.1553 38.7556C26.963 38.2562 26.777 37.7549 26.6094 37.2518C26.4412 36.7496 26.285 36.2448 26.1497 35.7394C26.1001 35.5656 26.0575 35.3912 26.0149 35.2172C25.9956 35.1384 25.9763 35.0597 25.9564 34.9811C25.9461 34.9331 25.9353 34.8836 25.9242 34.8325C25.7401 33.9846 25.461 32.6996 25.4886 30.8179C25.4901 30.775 25.4908 30.7322 25.4915 30.6893C25.4928 30.6074 25.4941 30.5255 25.5011 30.4439C25.5691 29.4435 25.6306 28.9258 25.9243 27.7092C26.3217 26.2984 26.6661 25.4429 27.4699 23.9899C29.778 20.1139 32.8034 17.6063 36.6441 14.4231C37.0634 14.0755 37.4925 13.7199 37.9314 13.3536C39.5041 12.0405 41.0438 10.7039 42.4359 9.26782L42.4365 9.26686C42.538 9.16182 42.7401 9.15991 42.8877 9.26203C43.0353 9.36414 43.0721 9.53213 42.9706 9.63718L42.9694 9.63908Z" fill="white"/>
<path d="M42.9694 9.63908C41.5373 11.0786 39.9644 12.4081 38.3678 13.7075C37.9832 14.0202 37.5961 14.3325 37.2083 14.6453C31.5239 19.2307 25.6986 23.9298 25.7493 31.5997C25.7593 32.395 25.8569 33.3593 26.0168 34.2236C26.0474 34.406 26.0858 34.589 26.124 34.7716C26.1384 34.8402 26.1528 34.9087 26.1667 34.9771C26.182 35.0417 26.1969 35.1063 26.2119 35.171C26.2552 35.3578 26.2985 35.5449 26.3491 35.731C26.476 36.2333 26.6252 36.7358 26.7857 37.2365C26.9443 37.7375 27.1246 38.237 27.3099 38.7366C27.9268 40.3838 28.6119 41.8926 29.2684 43.3386C30.407 45.8464 31.4599 48.1653 31.9233 50.69C31.4261 48.1655 30.3448 45.8541 29.1743 43.3518C28.4994 41.909 27.7948 40.4028 27.1553 38.7556C26.963 38.2562 26.777 37.7549 26.6094 37.2518C26.4412 36.7496 26.285 36.2448 26.1497 35.7394C26.1001 35.5656 26.0575 35.3912 26.0149 35.2172C25.9956 35.1384 25.9763 35.0597 25.9564 34.9811C25.9461 34.9331 25.9353 34.8836 25.9242 34.8325C25.7401 33.9846 25.461 32.6996 25.4886 30.8179C25.4901 30.775 25.4908 30.7322 25.4915 30.6893C25.4928 30.6074 25.4941 30.5255 25.5011 30.4439C25.5691 29.4435 25.6306 28.9258 25.9243 27.7092C26.3217 26.2984 26.6661 25.4429 27.4699 23.9899C29.778 20.1139 32.8034 17.6063 36.6441 14.4231C37.0634 14.0755 37.4925 13.7199 37.9314 13.3536C39.5041 12.0405 41.0438 10.7039 42.4359 9.26782L42.4365 9.26686C42.538 9.16182 42.7401 9.15991 42.8877 9.26203C43.0353 9.36414 43.0721 9.53213 42.9706 9.63718L42.9694 9.63908Z" stroke="white"/>
</g>
<g id="I x3D 23 1">
<path d="M45.476 9.48425C44.0208 10.9516 42.4319 12.3152 40.818 13.6504C40.1422 14.2086 39.6046 14.6473 39.1245 15.039C37.9388 16.0066 37.105 16.687 35.4116 18.1706C33.7395 19.7017 33.2134 20.218 31.776 21.8516C31.2929 22.4553 31.1395 22.6406 30.995 22.8314C30.8542 23.0173 30.7218 23.2085 30.3008 23.7976C30.2524 23.862 30.2339 23.8907 30.0411 24.1902C30.0001 24.2539 29.9512 24.3299 29.8925 24.421C27.5878 28.1432 27.055 31.8569 27.797 35.912C27.9835 36.9356 28.2449 37.961 28.5318 38.9842C28.82 40.0082 29.1299 41.0306 29.4819 42.0493C29.6698 42.5991 29.8665 43.1523 30.0641 43.7083C30.9434 46.1819 31.8427 48.7119 32.0813 51.256C31.8097 48.7152 30.8814 46.1964 29.9726 43.7304C29.7665 43.1713 29.5614 42.6149 29.3653 42.0616C28.9998 41.0423 28.6758 40.0177 28.3741 38.9932C28.0725 37.9686 27.7976 36.9401 27.5962 35.9101C26.7649 31.6682 27.3213 27.8289 29.7577 23.9336C29.8273 23.825 29.8453 23.7939 29.8643 23.7633C29.9018 23.7029 29.9432 23.6444 30.393 22.9963C30.5896 22.7122 30.6248 22.6606 30.6631 22.6111C30.6933 22.572 30.7255 22.5342 30.8405 22.3844L31.3082 21.7841C31.5142 21.5193 32.2627 20.6586 32.2988 20.6186L32.3527 20.5608C33.3057 19.5407 33.9151 18.8884 35.6137 17.3624C36.711 16.3791 37.8463 15.427 38.9798 14.4764C39.4473 14.0843 39.9144 13.6925 40.3785 13.2989C41.9678 11.9508 43.5252 10.5799 44.9401 9.11334L44.9407 9.11238C45.0428 9.00698 45.2448 9.0044 45.3938 9.10591C45.5423 9.20838 45.5799 9.37597 45.4778 9.48138L45.476 9.48425Z" fill="white"/>
<path d="M45.476 9.48425C44.0208 10.9516 42.4319 12.3152 40.818 13.6504C40.1422 14.2086 39.6046 14.6473 39.1245 15.039C37.9388 16.0066 37.105 16.687 35.4116 18.1706C33.7395 19.7017 33.2134 20.218 31.776 21.8516C31.2929 22.4553 31.1395 22.6406 30.995 22.8314C30.8542 23.0173 30.7218 23.2085 30.3008 23.7976C30.2524 23.862 30.2339 23.8907 30.0411 24.1902C30.0001 24.2539 29.9512 24.3299 29.8925 24.421C27.5878 28.1432 27.055 31.8569 27.797 35.912C27.9835 36.9356 28.2449 37.961 28.5318 38.9842C28.82 40.0082 29.1299 41.0306 29.4819 42.0493C29.6698 42.5991 29.8665 43.1523 30.0641 43.7083C30.9434 46.1819 31.8427 48.7119 32.0813 51.256C31.8097 48.7152 30.8814 46.1964 29.9726 43.7304C29.7665 43.1713 29.5614 42.6149 29.3653 42.0616C28.9998 41.0423 28.6758 40.0177 28.3741 38.9932C28.0725 37.9686 27.7976 36.9401 27.5962 35.9101C26.7649 31.6682 27.3213 27.8289 29.7577 23.9336C29.8273 23.825 29.8453 23.7939 29.8643 23.7633C29.9018 23.7029 29.9432 23.6444 30.393 22.9963C30.5896 22.7122 30.6248 22.6606 30.6631 22.6111C30.6933 22.572 30.7255 22.5342 30.8405 22.3844L31.3082 21.7841C31.5142 21.5193 32.2627 20.6586 32.2988 20.6186L32.3527 20.5608C33.3057 19.5407 33.9151 18.8884 35.6137 17.3624C36.711 16.3791 37.8463 15.427 38.9798 14.4764C39.4473 14.0843 39.9144 13.6925 40.3785 13.2989C41.9678 11.9508 43.5252 10.5799 44.9401 9.11334L44.9407 9.11238C45.0428 9.00698 45.2448 9.0044 45.3938 9.10591C45.5423 9.20838 45.5799 9.37597 45.4778 9.48138L45.476 9.48425Z" stroke="white"/>
</g>
<g id="I x3D 22 1">
<path d="M47.9929 9.86488C46.5048 11.3372 44.8925 12.7107 43.2532 14.0561C42.7755 14.4481 42.2882 14.8434 41.7961 15.2427C39.0282 17.4886 36.1076 19.8583 33.8938 22.4355C33.3247 23.1068 33.2755 23.1626 33.2309 23.2213C33.2147 23.2426 33.1991 23.2643 33.1593 23.3162C33.121 23.366 33.0788 23.4206 33.0331 23.4796C32.5806 24.0641 31.7854 25.0915 31.0651 26.4503C29.4042 29.5831 28.8308 32.7427 29.2039 36.2917C29.2565 36.807 29.326 37.3232 29.4096 37.8417C29.4919 38.3595 29.5852 38.8765 29.6881 39.3947C29.8958 40.4308 30.1133 41.4681 30.375 42.5039C30.5208 43.0887 30.6746 43.6742 30.8285 44.2604C31.4887 46.7736 32.1519 49.2982 32.1965 51.8257C32.1178 49.2927 31.4213 46.7675 30.7288 44.2568C30.5678 43.6731 30.407 43.0901 30.2542 42.5081C29.9796 41.4707 29.7473 40.4322 29.5254 39.3939C29.416 38.8749 29.3143 38.3548 29.2255 37.8362C29.1355 37.3169 29.0576 36.7976 28.9984 36.279C28.615 33.0244 29.0253 29.9483 30.4115 26.9835C32.7067 22.1207 37.0633 18.4932 41.3589 14.9164C41.845 14.5117 42.3303 14.1076 42.8118 13.7024C44.4251 12.3435 46.0069 10.9606 47.4558 9.48984L47.4564 9.48888C47.5604 9.38381 47.7643 9.38287 47.9136 9.48568C48.0622 9.58945 48.0982 9.75788 47.9955 9.86362L47.9929 9.86488Z" fill="white"/>
<path d="M47.9929 9.86488C46.5048 11.3372 44.8925 12.7107 43.2532 14.0561C42.7755 14.4481 42.2882 14.8434 41.7961 15.2427C39.0282 17.4886 36.1076 19.8583 33.8938 22.4355C33.3247 23.1068 33.2755 23.1626 33.2309 23.2213C33.2147 23.2426 33.1991 23.2643 33.1593 23.3162C33.121 23.366 33.0788 23.4206 33.0331 23.4796C32.5806 24.0641 31.7854 25.0915 31.0651 26.4503C29.4042 29.5831 28.8308 32.7427 29.2039 36.2917C29.2565 36.807 29.326 37.3232 29.4096 37.8417C29.4919 38.3595 29.5852 38.8765 29.6881 39.3947C29.8958 40.4308 30.1133 41.4681 30.375 42.5039C30.5208 43.0887 30.6746 43.6742 30.8285 44.2604C31.4887 46.7736 32.1519 49.2982 32.1965 51.8257C32.1178 49.2927 31.4213 46.7675 30.7288 44.2568C30.5678 43.6731 30.407 43.0901 30.2542 42.5081C29.9796 41.4707 29.7473 40.4322 29.5254 39.3939C29.416 38.8749 29.3143 38.3548 29.2255 37.8362C29.1355 37.3169 29.0576 36.7976 28.9984 36.279C28.615 33.0244 29.0253 29.9483 30.4115 26.9835C32.7067 22.1207 37.0633 18.4932 41.3589 14.9164C41.845 14.5117 42.3303 14.1076 42.8118 13.7024C44.4251 12.3435 46.0069 10.9606 47.4558 9.48984L47.4564 9.48888C47.5604 9.38381 47.7643 9.38287 47.9136 9.48568C48.0622 9.58945 48.0982 9.75788 47.9955 9.86362L47.9929 9.86488Z" stroke="white"/>
</g>
<g id="I x3D 21 1">
<path d="M50.325 10.8251C48.3271 12.7523 46.1047 14.5211 43.8915 16.2826C38.5755 20.5137 33.312 24.703 31.3367 30.9448C30.3923 33.9849 30.4131 36.685 30.7983 39.9932C30.9178 41.0275 31.058 42.0622 31.2319 43.0989C31.32 43.6315 31.4145 44.1685 31.5095 44.7088C31.9558 47.2447 32.4144 49.8508 32.2794 52.3998C32.3796 49.8459 31.8875 47.2418 31.408 44.7047C31.306 44.1651 31.2046 43.6286 31.1096 43.0962C30.9214 42.0573 30.7675 41.0194 30.6337 39.9829C30.4999 38.9463 30.3927 37.9093 30.3515 36.8781C29.9212 27.0048 36.6684 21.4961 43.4632 15.9486C45.6457 14.1666 47.8332 12.3806 49.7893 10.4447L49.7899 10.4438C49.8958 10.3391 50.1015 10.3398 50.2491 10.4441C50.398 10.5492 50.4322 10.7185 50.3269 10.8222L50.325 10.8251Z" fill="white"/>
<path d="M50.325 10.8251C48.3271 12.7523 46.1047 14.5211 43.8915 16.2826C38.5755 20.5137 33.312 24.703 31.3367 30.9448C30.3923 33.9849 30.4131 36.685 30.7983 39.9932C30.9178 41.0275 31.058 42.0622 31.2319 43.0989C31.32 43.6315 31.4145 44.1685 31.5095 44.7088C31.9558 47.2447 32.4144 49.8508 32.2794 52.3998C32.3796 49.8459 31.8875 47.2418 31.408 44.7047C31.306 44.1651 31.2046 43.6286 31.1096 43.0962C30.9214 42.0573 30.7675 41.0194 30.6337 39.9829C30.4999 38.9463 30.3927 37.9093 30.3515 36.8781C29.9212 27.0048 36.6684 21.4961 43.4632 15.9486C45.6457 14.1666 47.8332 12.3806 49.7893 10.4447L49.7899 10.4438C49.8958 10.3391 50.1015 10.3398 50.2491 10.4441C50.398 10.5492 50.4322 10.7185 50.3269 10.8222L50.325 10.8251Z" stroke="white"/>
</g>
<g id="I x3D 20 1">
<path d="M52.2073 12.3306C50.1318 14.2887 47.9242 16.0104 45.7059 17.7405C43.6085 19.3761 41.5015 21.0194 39.4874 22.8771C39.4371 22.9238 39.3865 22.9703 39.3358 23.0168C39.196 23.1452 39.0562 23.2737 38.9231 23.4077C38.5148 23.8128 38.3994 23.9209 38.2873 24.0319C38.1469 24.171 38.0117 24.3146 37.3111 25.0539C37.2538 25.1195 37.192 25.1895 37.1261 25.2641C36.4276 26.0556 35.2746 27.3621 34.183 29.2771C32.139 32.853 31.5982 36.5218 31.7799 40.7851C31.8407 42.1274 31.97 43.4707 32.0997 44.8177C32.3594 47.5156 32.6206 50.2282 32.3359 52.9764C32.5833 50.2209 32.2854 47.504 31.9891 44.8014C31.8414 43.4546 31.6941 42.1113 31.6149 40.7686C31.1407 32.3021 33.8095 27.3763 40.2781 21.5584C40.9853 20.9235 41.7551 20.2706 42.0606 20.018C43.0878 19.158 44.1434 18.3134 45.2037 17.465C47.4108 15.6989 49.6383 13.9165 51.6724 11.9459L51.673 11.945C51.7802 11.8416 51.9871 11.8423 52.1362 11.9487C52.2839 12.0543 52.3183 12.224 52.2105 12.3284C52.2085 12.3286 52.2073 12.3306 52.2073 12.3306Z" fill="white"/>
<path d="M52.2073 12.3306C50.1318 14.2887 47.9242 16.0104 45.7059 17.7405C43.6085 19.3761 41.5015 21.0194 39.4874 22.8771C39.4371 22.9238 39.3865 22.9703 39.3358 23.0168C39.196 23.1452 39.0562 23.2737 38.9231 23.4077C38.5148 23.8128 38.3994 23.9209 38.2873 24.0319C38.1469 24.171 38.0117 24.3146 37.3111 25.0539C37.2538 25.1195 37.192 25.1895 37.1261 25.2641C36.4276 26.0556 35.2746 27.3621 34.183 29.2771C32.139 32.853 31.5982 36.5218 31.7799 40.7851C31.8407 42.1274 31.97 43.4707 32.0997 44.8177C32.3594 47.5156 32.6206 50.2282 32.3359 52.9764C32.5833 50.2209 32.2854 47.504 31.9891 44.8014C31.8414 43.4546 31.6941 42.1113 31.6149 40.7686C31.1407 32.3021 33.8095 27.3763 40.2781 21.5584C40.9853 20.9235 41.7551 20.2706 42.0606 20.018C43.0878 19.158 44.1434 18.3134 45.2037 17.465C47.4108 15.6989 49.6383 13.9165 51.6724 11.9459L51.673 11.945C51.7802 11.8416 51.9871 11.8423 52.1362 11.9487C52.2839 12.0543 52.3183 12.224 52.2105 12.3284C52.2085 12.3286 52.2073 12.3306 52.2073 12.3306Z" stroke="white"/>
</g>
<g id="I x3D 19 1">
<path d="M53.4138 14.1833C51.3124 16.1788 49.0612 17.9348 46.8214 19.6818C43.6466 22.1581 40.4949 24.6164 37.8258 27.7136C37.6742 27.8908 37.616 27.9559 37.5598 28.0225C37.4677 28.1317 37.3813 28.2448 36.8974 28.8627C36.8513 28.9187 36.8389 28.9363 36.6564 29.1965C36.608 29.2655 36.5477 29.3514 36.4717 29.4596C36.2019 29.8436 36.197 29.8519 36.1687 29.8999C36.1539 29.9249 36.1328 29.9607 36.0646 30.0659C35.8572 30.3967 35.7707 30.5304 35.689 30.6664C35.5835 30.8419 35.4859 31.0211 35.1464 31.6324C35.0689 31.7896 35.0063 31.9166 34.955 32.0205C34.7499 32.4361 34.7273 32.4818 34.6704 32.6066C33.9406 34.2994 33.7656 34.8828 33.3725 36.3504C33.3702 36.3587 33.3684 36.3654 33.3666 36.3721C33.3519 36.4266 33.3412 36.4819 33.1361 37.41C33.0006 38.1834 32.9723 38.3355 32.9502 38.488C32.9381 38.5719 32.9279 38.6559 32.9029 38.8434C32.5628 41.1619 32.6317 43.4225 32.7014 45.7091C32.7789 48.254 32.8575 50.831 32.3743 53.5557C32.82 50.813 32.7046 48.2473 32.5904 45.7086C32.4874 43.4202 32.3855 41.1537 32.6965 38.7995C33.0945 35.4442 34.2106 32.1472 36.1568 29.2915C38.7502 25.4842 42.5606 22.4257 46.3846 19.3562C48.6236 17.5589 50.8674 15.7578 52.8742 13.8005L52.8749 13.7995C52.982 13.6942 53.1912 13.6957 53.3398 13.8016C53.489 13.9066 53.5242 14.0784 53.4164 14.182C53.4151 14.1813 53.4138 14.1833 53.4138 14.1833Z" fill="white"/>
<path d="M53.4138 14.1833C51.3124 16.1788 49.0612 17.9348 46.8214 19.6818C43.6466 22.1581 40.4949 24.6164 37.8258 27.7136C37.6742 27.8908 37.616 27.9559 37.5598 28.0225C37.4677 28.1317 37.3813 28.2448 36.8974 28.8627C36.8513 28.9187 36.8389 28.9363 36.6564 29.1965C36.608 29.2655 36.5477 29.3514 36.4717 29.4596C36.2019 29.8436 36.197 29.8519 36.1687 29.8999C36.1539 29.9249 36.1328 29.9607 36.0646 30.0659C35.8572 30.3967 35.7707 30.5304 35.689 30.6664C35.5835 30.8419 35.4859 31.0211 35.1464 31.6324C35.0689 31.7896 35.0063 31.9166 34.955 32.0205C34.7499 32.4361 34.7273 32.4818 34.6704 32.6066C33.9406 34.2994 33.7656 34.8828 33.3725 36.3504C33.3702 36.3587 33.3684 36.3654 33.3666 36.3721C33.3519 36.4266 33.3412 36.4819 33.1361 37.41C33.0006 38.1834 32.9723 38.3355 32.9502 38.488C32.9381 38.5719 32.9279 38.6559 32.9029 38.8434C32.5628 41.1619 32.6317 43.4225 32.7014 45.7091C32.7789 48.254 32.8575 50.831 32.3743 53.5557C32.82 50.813 32.7046 48.2473 32.5904 45.7086C32.4874 43.4202 32.3855 41.1537 32.6965 38.7995C33.0945 35.4442 34.2106 32.1472 36.1568 29.2915C38.7502 25.4842 42.5606 22.4257 46.3846 19.3562C48.6236 17.5589 50.8674 15.7578 52.8742 13.8005L52.8749 13.7995C52.982 13.6942 53.1912 13.6957 53.3398 13.8016C53.489 13.9066 53.5242 14.0784 53.4164 14.182C53.4151 14.1813 53.4138 14.1833 53.4138 14.1833Z" stroke="white"/>
</g>
<g id="I x3D 18 1">
<path d="M53.9666 16.1824C52.5735 17.5665 51.0658 18.8647 49.5264 20.1298C48.6962 20.8109 47.967 21.3949 47.2633 21.9586C45.9717 22.9932 44.7659 23.9591 43.1785 25.33C41.0504 27.2004 39.6596 28.5701 37.9122 30.8297C37.9071 30.8367 37.903 30.8422 37.899 30.8477C37.8667 30.8918 37.8357 30.9365 37.2975 31.699C35.4785 34.4322 34.2349 37.4353 33.6655 40.7394C33.2987 42.8898 33.2642 44.1417 33.2146 45.9388C33.1943 46.6763 33.1714 47.5056 33.122 48.5264C33.033 50.4249 32.8531 52.3132 32.4105 54.1331C32.8246 52.3051 32.9769 50.413 33.0389 48.5123C33.067 47.6728 33.0778 46.9106 33.0881 46.1902C33.1183 44.0642 33.1433 42.3028 33.5915 39.9956C34.0306 37.7906 34.5177 36.3638 35.2835 34.6394C35.358 34.4743 35.377 34.4285 35.3976 34.3832C35.4229 34.3277 35.4507 34.2731 35.5861 34.0016C35.7609 33.655 35.8093 33.5527 35.8616 33.4519C35.9213 33.3369 35.986 33.2239 36.2493 32.7518C36.3128 32.6409 36.3393 32.5922 36.3574 32.5589C36.3948 32.4903 36.3964 32.4875 36.6112 32.1404C37.4589 30.7843 37.868 30.245 38.9296 28.9504C39.0471 28.8181 39.0956 28.7633 39.1443 28.7086C39.2217 28.6216 39.2992 28.5346 39.6548 28.1351C39.7121 28.0686 39.7457 28.0334 39.9557 27.8136C40.0099 27.7569 40.0757 27.688 40.1567 27.6031C40.3886 27.3634 40.4364 27.3099 40.4858 27.2576C40.554 27.1854 40.6251 27.1155 41.188 26.5598L41.45 26.3015C43.5583 24.3283 44.8948 23.2295 46.5749 21.8481C47.3112 21.2428 48.1134 20.5833 49.0755 19.7721C50.5889 18.495 52.0629 17.1886 53.4185 15.8048L53.4191 15.8039C53.5241 15.697 53.7317 15.6944 53.8849 15.7974C54.0374 15.9014 54.076 16.0714 53.9724 16.1789C53.9685 16.1795 53.9672 16.1814 53.9666 16.1824Z" fill="white"/>
<path d="M53.9666 16.1824C52.5735 17.5665 51.0658 18.8647 49.5264 20.1298C48.6962 20.8109 47.967 21.3949 47.2633 21.9586C45.9717 22.9932 44.7659 23.9591 43.1785 25.33C41.0504 27.2004 39.6596 28.5701 37.9122 30.8297C37.9071 30.8367 37.903 30.8422 37.899 30.8477C37.8667 30.8918 37.8357 30.9365 37.2975 31.699C35.4785 34.4322 34.2349 37.4353 33.6655 40.7394C33.2987 42.8898 33.2642 44.1417 33.2146 45.9388C33.1943 46.6763 33.1714 47.5056 33.122 48.5264C33.033 50.4249 32.8531 52.3132 32.4105 54.1331C32.8246 52.3051 32.9769 50.413 33.0389 48.5123C33.067 47.6728 33.0778 46.9106 33.0881 46.1902C33.1183 44.0642 33.1433 42.3028 33.5915 39.9956C34.0306 37.7906 34.5177 36.3638 35.2835 34.6394C35.358 34.4743 35.377 34.4285 35.3976 34.3832C35.4229 34.3277 35.4507 34.2731 35.5861 34.0016C35.7609 33.655 35.8093 33.5527 35.8616 33.4519C35.9213 33.3369 35.986 33.2239 36.2493 32.7518C36.3128 32.6409 36.3393 32.5922 36.3574 32.5589C36.3948 32.4903 36.3964 32.4875 36.6112 32.1404C37.4589 30.7843 37.868 30.245 38.9296 28.9504C39.0471 28.8181 39.0956 28.7633 39.1443 28.7086C39.2217 28.6216 39.2992 28.5346 39.6548 28.1351C39.7121 28.0686 39.7457 28.0334 39.9557 27.8136C40.0099 27.7569 40.0757 27.688 40.1567 27.6031C40.3886 27.3634 40.4364 27.3099 40.4858 27.2576C40.554 27.1854 40.6251 27.1155 41.188 26.5598L41.45 26.3015C43.5583 24.3283 44.8948 23.2295 46.5749 21.8481C47.3112 21.2428 48.1134 20.5833 49.0755 19.7721C50.5889 18.495 52.0629 17.1886 53.4185 15.8048L53.4191 15.8039C53.5241 15.697 53.7317 15.6944 53.8849 15.7974C54.0374 15.9014 54.076 16.0714 53.9724 16.1789C53.9685 16.1795 53.9672 16.1814 53.9666 16.1824Z" stroke="white"/>
</g>
<g id="I x3D 17 1">
<path d="M53.9236 18.2051C52.6493 19.5832 51.2634 20.8809 49.8377 22.144C48.9601 22.918 48.0843 23.6663 47.2159 24.4083C45.1964 26.1338 43.2169 27.825 41.3491 29.725C37.3602 33.7886 34.7414 38.4453 33.9535 43.9562C33.815 44.8872 33.7288 45.9454 33.6363 47.0822C33.4451 49.4317 33.2266 52.1168 32.4612 54.7079C33.1856 52.1038 33.3631 49.4075 33.5183 47.0506C33.5933 45.9112 33.663 44.8512 33.7869 43.9192C34.4905 38.3678 37.0564 33.6283 41.0004 29.4912C42.8409 27.562 44.7983 25.8411 46.7884 24.0914C47.6453 23.338 48.5082 22.5794 49.3705 21.7964C50.7676 20.5226 52.1209 19.2174 53.3563 17.8415L53.3569 17.8406C53.4563 17.7291 53.6647 17.7213 53.8211 17.8206C53.9788 17.9206 54.0242 18.0917 53.9255 18.2022L53.9236 18.2051Z" fill="white"/>
<path d="M53.9236 18.2051C52.6493 19.5832 51.2634 20.8809 49.8377 22.144C48.9601 22.918 48.0843 23.6663 47.2159 24.4083C45.1964 26.1338 43.2169 27.825 41.3491 29.725C37.3602 33.7886 34.7414 38.4453 33.9535 43.9562C33.815 44.8872 33.7288 45.9454 33.6363 47.0822C33.4451 49.4317 33.2266 52.1168 32.4612 54.7079C33.1856 52.1038 33.3631 49.4075 33.5183 47.0506C33.5933 45.9112 33.663 44.8512 33.7869 43.9192C34.4905 38.3678 37.0564 33.6283 41.0004 29.4912C42.8409 27.562 44.7983 25.8411 46.7884 24.0914C47.6453 23.338 48.5082 22.5794 49.3705 21.7964C50.7676 20.5226 52.1209 19.2174 53.3563 17.8415L53.3569 17.8406C53.4563 17.7291 53.6647 17.7213 53.8211 17.8206C53.9788 17.9206 54.0242 18.0917 53.9255 18.2022L53.9236 18.2051Z" stroke="white"/>
</g>
<g id="I x3D 16 1">
<path d="M53.4092 20.1562C52.2815 21.5346 51.0445 22.8418 49.7622 24.1143C48.631 25.2352 47.5217 26.2724 46.4302 27.2929C44.0641 29.5051 41.7817 31.6391 39.5412 34.379C37.6541 36.8269 36.4751 38.7306 35.307 41.8321C34.4483 44.405 34.299 45.6035 34.0571 47.5445C33.9638 48.293 33.8567 49.1519 33.69 50.2426C33.4286 51.9558 33.0813 53.6526 32.5295 55.2841C33.0533 53.6435 33.3732 51.9419 33.606 50.2232C33.7544 49.1338 33.8482 48.2677 33.9303 47.5099C34.1397 45.5765 34.2728 44.3477 35.0413 41.9126C35.3694 40.8731 36.0984 39.1238 36.8726 37.7603C37.0174 37.4879 37.1775 37.2226 37.3376 36.9572C37.4031 36.8488 37.4685 36.7403 37.533 36.6313C37.6023 36.5197 37.9576 35.9648 38.2538 35.5331C40.5039 32.3038 43.2392 29.6661 46.0359 26.969C47.1152 25.9282 48.2037 24.8785 49.277 23.7826C50.5306 22.502 51.7336 21.1892 52.8243 19.8127L52.8249 19.8117C52.9167 19.6959 53.123 19.6788 53.2852 19.7731C53.4474 19.8674 53.5042 20.0381 53.4125 20.1539C53.4125 20.1539 53.4099 20.1552 53.4092 20.1562Z" fill="white"/>
<path d="M53.4092 20.1562C52.2815 21.5346 51.0445 22.8418 49.7622 24.1143C48.631 25.2352 47.5217 26.2724 46.4302 27.2929C44.0641 29.5051 41.7817 31.6391 39.5412 34.379C37.6541 36.8269 36.4751 38.7306 35.307 41.8321C34.4483 44.405 34.299 45.6035 34.0571 47.5445C33.9638 48.293 33.8567 49.1519 33.69 50.2426C33.4286 51.9558 33.0813 53.6526 32.5295 55.2841C33.0533 53.6435 33.3732 51.9419 33.606 50.2232C33.7544 49.1338 33.8482 48.2677 33.9303 47.5099C34.1397 45.5765 34.2728 44.3477 35.0413 41.9126C35.3694 40.8731 36.0984 39.1238 36.8726 37.7603C37.0174 37.4879 37.1775 37.2226 37.3376 36.9572C37.4031 36.8488 37.4685 36.7403 37.533 36.6313C37.6023 36.5197 37.9576 35.9648 38.2538 35.5331C40.5039 32.3038 43.2392 29.6661 46.0359 26.969C47.1152 25.9282 48.2037 24.8785 49.277 23.7826C50.5306 22.502 51.7336 21.1892 52.8243 19.8127L52.8249 19.8117C52.9167 19.6959 53.123 19.6788 53.2852 19.7731C53.4474 19.8674 53.5042 20.0381 53.4125 20.1539C53.4125 20.1539 53.4099 20.1552 53.4092 20.1562Z" stroke="white"/>
</g>
<g id="I x3D 15 1">
<path d="M52.5722 22.0324C50.5752 24.7535 48.2064 27.1467 45.8421 29.5353C41.9629 33.4543 38.0957 37.3613 35.9024 42.685C34.8568 45.384 34.6731 46.55 34.3636 48.5152C34.251 49.2301 34.1218 50.0508 33.9283 51.0896C33.628 52.715 33.2381 54.3235 32.6438 55.8605C33.212 54.3141 33.5724 52.7011 33.8447 51.0692C34.0049 50.1188 34.1178 49.322 34.2193 48.6051C34.5452 46.3053 34.7545 44.8286 36.0339 41.7431C36.0537 41.6996 36.0749 41.6526 36.0977 41.6023C36.444 40.8366 37.1464 39.2834 38.6273 37.12C38.6915 37.0298 38.7552 36.9394 38.8189 36.849C38.9976 36.5955 39.1761 36.3421 39.3646 36.0944C40.941 33.9365 43.2122 31.5607 45.4184 29.2529C46.6033 28.0134 47.7695 26.7935 48.7992 25.6376C49.9309 24.3687 51.0065 23.0674 51.9703 21.7066L51.9709 21.7057C52.0562 21.5863 52.2595 21.5609 52.4273 21.6502C52.5931 21.7397 52.66 21.9091 52.5755 22.0301C52.5741 22.0294 52.5729 22.0314 52.5722 22.0324Z" fill="white"/>
<path d="M52.5722 22.0324C50.5752 24.7535 48.2064 27.1467 45.8421 29.5353C41.9629 33.4543 38.0957 37.3613 35.9024 42.685C34.8568 45.384 34.6731 46.55 34.3636 48.5152C34.251 49.2301 34.1218 50.0508 33.9283 51.0896C33.628 52.715 33.2381 54.3235 32.6438 55.8605C33.212 54.3141 33.5724 52.7011 33.8447 51.0692C34.0049 50.1188 34.1178 49.322 34.2193 48.6051C34.5452 46.3053 34.7545 44.8286 36.0339 41.7431C36.0537 41.6996 36.0749 41.6526 36.0977 41.6023C36.444 40.8366 37.1464 39.2834 38.6273 37.12C38.6915 37.0298 38.7552 36.9394 38.8189 36.849C38.9976 36.5955 39.1761 36.3421 39.3646 36.0944C40.941 33.9365 43.2122 31.5607 45.4184 29.2529C46.6033 28.0134 47.7695 26.7935 48.7992 25.6376C49.9309 24.3687 51.0065 23.0674 51.9703 21.7066L51.9709 21.7057C52.0562 21.5863 52.2595 21.5609 52.4273 21.6502C52.5931 21.7397 52.66 21.9091 52.5755 22.0301C52.5741 22.0294 52.5729 22.0314 52.5722 22.0324Z" stroke="white"/>
</g>
<g id="I x3D 14 1">
<path d="M51.548 23.8432C50.6861 25.1946 49.7167 26.4874 48.691 27.7425C47.405 29.3196 46.0832 30.7779 44.7807 32.2147C41.7979 35.5054 38.917 38.6836 36.8026 42.9185C35.3916 45.7371 34.9759 47.8566 34.6352 49.5935L34.631 49.6147C34.1802 51.9593 33.7292 54.2518 32.7745 56.4343C33.6895 54.2355 34.0996 51.934 34.5057 49.5835C34.5176 49.516 34.5298 49.4466 34.5424 49.3753C34.9054 47.3104 35.547 43.6613 38.9449 38.69C39.3912 38.0253 39.8692 37.3781 40.358 36.7364C41.8224 34.8646 43.2602 33.2162 44.6373 31.6375C45.8741 30.2195 47.062 28.8577 48.1761 27.4406C49.1703 26.1786 50.1044 24.8847 50.9305 23.5386L50.9311 23.5377C51.0072 23.4134 51.2081 23.3786 51.3795 23.4631C51.5502 23.5459 51.6286 23.7147 51.5506 23.8393L51.548 23.8432Z" fill="white"/>
<path d="M51.548 23.8432C50.6861 25.1946 49.7167 26.4874 48.691 27.7425C47.405 29.3196 46.0832 30.7779 44.7807 32.2147C41.7979 35.5054 38.917 38.6836 36.8026 42.9185C35.3916 45.7371 34.9759 47.8566 34.6352 49.5935L34.631 49.6147C34.1802 51.9593 33.7292 54.2518 32.7745 56.4343C33.6895 54.2355 34.0996 51.934 34.5057 49.5835C34.5176 49.516 34.5298 49.4466 34.5424 49.3753C34.9054 47.3104 35.547 43.6613 38.9449 38.69C39.3912 38.0253 39.8692 37.3781 40.358 36.7364C41.8224 34.8646 43.2602 33.2162 44.6373 31.6375C45.8741 30.2195 47.062 28.8577 48.1761 27.4406C49.1703 26.1786 50.1044 24.8847 50.9305 23.5386L50.9311 23.5377C51.0072 23.4134 51.2081 23.3786 51.3795 23.4631C51.5502 23.5459 51.6286 23.7147 51.5506 23.8393L51.548 23.8432Z" stroke="white"/>
</g>
<g id="I x3D 13 1">
<path d="M50.4736 25.6267C49.7714 26.9718 48.9522 28.2613 48.0666 29.512C46.7566 31.3633 45.3231 33.0993 43.8927 34.8313C41.4401 37.8012 38.9969 40.7598 37.2021 44.2695C36.3523 45.867 35.5346 48.0563 35.1928 49.4928C35.0623 49.9895 34.9387 50.537 34.8076 51.1177C34.3974 52.9341 33.9139 55.0757 32.9162 57.0045C33.8753 55.0617 34.3169 52.9132 34.6921 51.0876C34.8122 50.5033 34.9255 49.9522 35.0468 49.4513C35.3962 47.8465 36.2103 45.6489 36.963 44.1664C38.6954 40.61 41.0879 37.6027 43.4829 34.5922C44.8753 32.842 46.2685 31.0908 47.5335 29.2299C48.3864 27.9769 49.1702 26.689 49.8339 25.3531L49.8345 25.3521C49.8999 25.2222 50.0958 25.1768 50.2721 25.2519C50.4484 25.3269 50.5396 25.4932 50.4742 25.6231C50.4756 25.6238 50.4743 25.6258 50.4736 25.6267Z" fill="white"/>
<path d="M50.4736 25.6267C49.7714 26.9718 48.9522 28.2613 48.0666 29.512C46.7566 31.3633 45.3231 33.0993 43.8927 34.8313C41.4401 37.8012 38.9969 40.7598 37.2021 44.2695C36.3523 45.867 35.5346 48.0563 35.1928 49.4928C35.0623 49.9895 34.9387 50.537 34.8076 51.1177C34.3974 52.9341 33.9139 55.0757 32.9162 57.0045C33.8753 55.0617 34.3169 52.9132 34.6921 51.0876C34.8122 50.5033 34.9255 49.9522 35.0468 49.4513C35.3962 47.8465 36.2103 45.6489 36.963 44.1664C38.6954 40.61 41.0879 37.6027 43.4829 34.5922C44.8753 32.842 46.2685 31.0908 47.5335 29.2299C48.3864 27.9769 49.1702 26.689 49.8339 25.3531L49.8345 25.3521C49.8999 25.2222 50.0958 25.1768 50.2721 25.2519C50.4484 25.3269 50.5396 25.4932 50.4742 25.6231C50.4756 25.6238 50.4743 25.6258 50.4736 25.6267Z" stroke="white"/>
</g>
<g id="I x3D 12 1">
<path d="M49.4787 27.4609C47.9634 31.1549 45.5252 34.3918 43.1028 37.6076C42.0168 39.0493 40.9339 40.4868 39.9389 41.9594C36.5662 46.9135 35.7508 49.9289 35.0789 52.414C34.9662 52.8306 34.8576 53.2324 34.7416 53.6258C34.3374 54.9951 33.8744 56.3137 33.1061 57.5716C33.832 56.3288 34.2881 54.974 34.6581 53.6017C34.7652 53.209 34.8652 52.8074 34.9691 52.3904C35.5933 49.8844 36.3555 46.8241 39.6311 41.8034C40.5976 40.3114 41.6507 38.8552 42.7054 37.3969C45.0502 34.1547 47.4024 30.9024 48.8251 27.2236L48.8257 27.2226C48.8783 27.0874 49.0675 27.0306 49.2484 27.0962C49.4294 27.1618 49.534 27.3245 49.4813 27.4596C49.48 27.4589 49.4787 27.4609 49.4787 27.4609Z" fill="white"/>
<path d="M49.4787 27.4609C47.9634 31.1549 45.5252 34.3918 43.1028 37.6076C42.0168 39.0493 40.9339 40.4868 39.9389 41.9594C36.5662 46.9135 35.7508 49.9289 35.0789 52.414C34.9662 52.8306 34.8576 53.2324 34.7416 53.6258C34.3374 54.9951 33.8744 56.3137 33.1061 57.5716C33.832 56.3288 34.2881 54.974 34.6581 53.6017C34.7652 53.209 34.8652 52.8074 34.9691 52.3904C35.5933 49.8844 36.3555 46.8241 39.6311 41.8034C40.5976 40.3114 41.6507 38.8552 42.7054 37.3969C45.0502 34.1547 47.4024 30.9024 48.8251 27.2236L48.8257 27.2226C48.8783 27.0874 49.0675 27.0306 49.2484 27.0962C49.4294 27.1618 49.534 27.3245 49.4813 27.4596C49.48 27.4589 49.4787 27.4609 49.4787 27.4609Z" stroke="white"/>
</g>
<g id="I x3D 11 1">
<path d="M48.708 29.4082C47.842 32.0315 46.5955 34.377 45.1258 36.7435C44.1521 38.3034 43.1462 39.7738 42.1559 41.2216C39.9783 44.405 37.8759 47.4785 36.3561 51.1501C36.0771 51.8478 35.8336 52.5433 35.5921 53.2331C35.0023 54.9176 34.4245 56.5678 33.3702 58.1319C34.397 56.5377 34.9525 54.8287 35.4989 53.1479C35.777 52.2923 36.0527 51.444 36.387 50.6219C37.7934 47.1637 39.7959 44.0991 41.8287 40.9879C42.7851 39.5241 43.7483 38.0501 44.6593 36.5199C46.0602 34.1536 47.2453 31.811 48.0468 29.198L48.0475 29.197C48.0899 29.0581 48.2732 28.9933 48.4556 29.0506C48.6394 29.1087 48.7531 29.2681 48.7113 29.406C48.7099 29.4053 48.7087 29.4073 48.708 29.4082Z" fill="white"/>
<path d="M48.708 29.4082C47.842 32.0315 46.5955 34.377 45.1258 36.7435C44.1521 38.3034 43.1462 39.7738 42.1559 41.2216C39.9783 44.405 37.8759 47.4785 36.3561 51.1501C36.0771 51.8478 35.8336 52.5433 35.5921 53.2331C35.0023 54.9176 34.4245 56.5678 33.3702 58.1319C34.397 56.5377 34.9525 54.8287 35.4989 53.1479C35.777 52.2923 36.0527 51.444 36.387 50.6219C37.7934 47.1637 39.7959 44.0991 41.8287 40.9879C42.7851 39.5241 43.7483 38.0501 44.6593 36.5199C46.0602 34.1536 47.2453 31.811 48.0468 29.198L48.0475 29.197C48.0899 29.0581 48.2732 28.9933 48.4556 29.0506C48.6394 29.1087 48.7531 29.2681 48.7113 29.406C48.7099 29.4053 48.7087 29.4073 48.708 29.4082Z" stroke="white"/>
</g>
<g id="I x3D 10 1">
<path d="M48.2887 31.4304C47.0375 36.1778 44.4814 40.1081 41.8203 44.2C40.079 46.8776 38.2927 49.6243 36.7977 52.7143C36.6265 53.0938 36.4656 53.458 36.3105 53.8091C35.4734 55.7039 34.8055 57.2157 33.6106 58.6774C34.7702 57.1954 35.401 55.6748 36.1953 53.7603C36.3418 53.4071 36.4939 53.0404 36.656 52.6581C38.0836 49.5299 39.8089 46.7447 41.488 44.0339C44.0412 39.9122 46.4878 35.9626 47.6193 31.2409L47.6199 31.2399C47.653 31.0988 47.8307 31.0259 48.0163 31.0784C48.2013 31.1292 48.3243 31.2855 48.2892 31.4268C48.2886 31.4278 48.2887 31.4304 48.2887 31.4304Z" fill="white"/>
<path d="M48.2887 31.4304C47.0375 36.1778 44.4814 40.1081 41.8203 44.2C40.079 46.8776 38.2927 49.6243 36.7977 52.7143C36.6265 53.0938 36.4656 53.458 36.3105 53.8091C35.4734 55.7039 34.8055 57.2157 33.6106 58.6774C34.7702 57.1954 35.401 55.6748 36.1953 53.7603C36.3418 53.4071 36.4939 53.0404 36.656 52.6581C38.0836 49.5299 39.8089 46.7447 41.488 44.0339C44.0412 39.9122 46.4878 35.9626 47.6193 31.2409L47.6199 31.2399C47.653 31.0988 47.8307 31.0259 48.0163 31.0784C48.2013 31.1292 48.3243 31.2855 48.2892 31.4268C48.2886 31.4278 48.2887 31.4304 48.2887 31.4304Z" stroke="white"/>
</g>
<g id="I x3D 9 1">
<path d="M47.2943 37.0392C45.6099 41.6977 42.834 45.7917 40.3897 49.3968C39.5258 50.6709 38.7033 51.884 37.9851 53.0393C37.5547 53.718 37.1798 54.3791 36.8167 55.0192C35.9485 56.5501 35.1485 57.9607 33.8225 59.2033C35.1185 57.9352 35.8927 56.4923 36.7223 54.9461C37.0679 54.3018 37.4232 53.6396 37.8299 52.9646C38.5093 51.8127 39.2972 50.5909 40.1275 49.3032C43.0686 44.7422 46.5428 39.3545 47.6189 33.3175C47.6484 33.1653 47.8245 33.0953 48.0036 33.1391C48.1907 33.1843 48.3205 33.3363 48.2948 33.4799C48.1346 34.3347 47.7723 35.698 47.2943 37.0392Z" fill="white"/>
<path d="M47.2943 37.0392C45.6099 41.6977 42.834 45.7917 40.3897 49.3968C39.5258 50.6709 38.7033 51.884 37.9851 53.0393C37.5547 53.718 37.1798 54.3791 36.8167 55.0192C35.9485 56.5501 35.1485 57.9607 33.8225 59.2033C35.1185 57.9352 35.8927 56.4923 36.7223 54.9461C37.0679 54.3018 37.4232 53.6396 37.8299 52.9646C38.5093 51.8127 39.2972 50.5909 40.1275 49.3032C43.0686 44.7422 46.5428 39.3545 47.6189 33.3175C47.6484 33.1653 47.8245 33.0953 48.0036 33.1391C48.1907 33.1843 48.3205 33.3363 48.2948 33.4799C48.1346 34.3347 47.7723 35.698 47.2943 37.0392Z" stroke="white"/>
</g>
<g id="I x3D 8 1">
<path d="M46.5181 42.2694C45.5662 44.4218 44.3807 46.474 43.0902 48.4664L42.8484 48.8406L42.6012 49.212C41.5184 50.8283 40.8378 51.6723 39.7596 53.0094C39.4707 53.3678 39.1532 53.7615 38.7917 54.2151C38.3423 54.7785 37.9396 55.315 37.5569 55.825C36.4288 57.3281 35.474 58.6004 34.0052 59.6495C35.4415 58.577 36.3588 57.2925 37.446 55.7702C37.8163 55.2516 38.2063 54.7054 38.6433 54.1306C38.9976 53.6636 39.3081 53.2591 39.5904 52.8915C40.6248 51.5441 41.2792 50.6918 42.3125 49.0667L42.5496 48.6915L42.7812 48.3135C45.2466 44.2961 47.2746 40.0438 47.8944 35.3768C47.914 35.2315 48.0813 35.1469 48.2678 35.1868C48.4544 35.2267 48.5905 35.3766 48.5715 35.5209C48.2332 37.7878 47.4469 40.1743 46.5181 42.2694Z" fill="white"/>
<path d="M46.5181 42.2694C45.5662 44.4218 44.3807 46.474 43.0902 48.4664L42.8484 48.8406L42.6012 49.212C41.5184 50.8283 40.8378 51.6723 39.7596 53.0094C39.4707 53.3678 39.1532 53.7615 38.7917 54.2151C38.3423 54.7785 37.9396 55.315 37.5569 55.825C36.4288 57.3281 35.474 58.6004 34.0052 59.6495C35.4415 58.577 36.3588 57.2925 37.446 55.7702C37.8163 55.2516 38.2063 54.7054 38.6433 54.1306C38.9976 53.6636 39.3081 53.2591 39.5904 52.8915C40.6248 51.5441 41.2792 50.6918 42.3125 49.0667L42.5496 48.6915L42.7812 48.3135C45.2466 44.2961 47.2746 40.0438 47.8944 35.3768C47.914 35.2315 48.0813 35.1469 48.2678 35.1868C48.4544 35.2267 48.5905 35.3766 48.5715 35.5209C48.2332 37.7878 47.4469 40.1743 46.5181 42.2694Z" stroke="white"/>
</g>
<g id="I x3D 7 1">
<path d="M49.1277 37.5499C48.618 42.1182 46.6345 46.2204 44.0911 50.0786C44.0613 50.1231 44.0321 50.1678 44.0029 50.2126C43.9541 50.2873 43.9052 50.3621 43.8534 50.436C42.6035 52.2426 41.4371 53.4493 39.5604 55.3778C39.1975 55.7514 38.8633 56.1044 38.5468 56.4386C37.078 57.9899 35.9916 59.1374 34.1826 60.0642C35.9662 59.1036 37.035 57.918 38.4423 56.3568C38.748 56.0176 39.0697 55.6608 39.4182 55.2847C39.4594 55.2403 39.5006 55.1959 39.5417 55.1515C41.0972 53.4752 42.6278 51.8256 43.7827 49.9232C46.1883 46.0693 48.0585 41.959 48.4503 37.4168C48.4631 37.2709 48.6246 37.1809 48.812 37.2162C48.9993 37.2514 49.141 37.3977 49.1282 37.5436C49.1269 37.5456 49.127 37.5482 49.1277 37.5499Z" fill="white"/>
<path d="M49.1277 37.5499C48.618 42.1182 46.6345 46.2204 44.0911 50.0786C44.0613 50.1231 44.0321 50.1678 44.0029 50.2126C43.9541 50.2873 43.9052 50.3621 43.8534 50.436C42.6035 52.2426 41.4371 53.4493 39.5604 55.3778C39.1975 55.7514 38.8633 56.1044 38.5468 56.4386C37.078 57.9899 35.9916 59.1374 34.1826 60.0642C35.9662 59.1036 37.035 57.918 38.4423 56.3568C38.748 56.0176 39.0697 55.6608 39.4182 55.2847C39.4594 55.2403 39.5006 55.1959 39.5417 55.1515C41.0972 53.4752 42.6278 51.8256 43.7827 49.9232C46.1883 46.0693 48.0585 41.959 48.4503 37.4168C48.4631 37.2709 48.6246 37.1809 48.812 37.2162C48.9993 37.2514 49.141 37.3977 49.1282 37.5436C49.1269 37.5456 49.127 37.5482 49.1277 37.5499Z" stroke="white"/>
</g>
<g id="I x3D 6 1">
<path d="M49.8906 39.5903C49.6447 43.0603 48.5939 45.9261 46.9742 48.9506C45.3742 51.9422 44.156 53.1957 43.1428 54.2382C43.112 54.2698 43.0814 54.3013 43.051 54.3326C41.1969 56.2262 40.194 56.9659 39.2946 57.6293C39.2444 57.6664 39.1946 57.7031 39.1449 57.7399C39.0133 57.8372 38.883 57.9343 38.7535 58.0308C37.4496 59.0025 36.2236 59.9162 34.4919 60.4622C36.2038 59.886 37.4038 58.9475 38.673 57.9549C38.7979 57.8572 38.9235 57.7589 39.0504 57.6605C39.1141 57.6111 39.1799 57.5606 39.2481 57.5081C39.9871 56.9404 41.0169 56.1494 42.8407 54.1928C42.8718 54.1592 42.903 54.1255 42.9344 54.0915C43.9079 53.0397 45.0768 51.7767 46.5815 48.7787C48.0933 45.7692 49.0626 42.919 49.2181 39.4755C49.2242 39.3293 49.3802 39.235 49.5658 39.2648C49.7515 39.2947 49.8972 39.4379 49.8911 39.5841C49.8912 39.5867 49.8913 39.5893 49.8906 39.5903Z" fill="white"/>
<path d="M49.8906 39.5903C49.6447 43.0603 48.5939 45.9261 46.9742 48.9506C45.3742 51.9422 44.156 53.1957 43.1428 54.2382C43.112 54.2698 43.0814 54.3013 43.051 54.3326C41.1969 56.2262 40.194 56.9659 39.2946 57.6293C39.2444 57.6664 39.1946 57.7031 39.1449 57.7399C39.0133 57.8372 38.883 57.9343 38.7535 58.0308C37.4496 59.0025 36.2236 59.9162 34.4919 60.4622C36.2038 59.886 37.4038 58.9475 38.673 57.9549C38.7979 57.8572 38.9235 57.7589 39.0504 57.6605C39.1141 57.6111 39.1799 57.5606 39.2481 57.5081C39.9871 56.9404 41.0169 56.1494 42.8407 54.1928C42.8718 54.1592 42.903 54.1255 42.9344 54.0915C43.9079 53.0397 45.0768 51.7767 46.5815 48.7787C48.0933 45.7692 49.0626 42.919 49.2181 39.4755C49.2242 39.3293 49.3802 39.235 49.5658 39.2648C49.7515 39.2947 49.8972 39.4379 49.8911 39.5841C49.8912 39.5867 49.8913 39.5893 49.8906 39.5903Z" stroke="white"/>
</g>
<g id="I x3D 5 1">
<path d="M50.7879 41.6343C50.7406 42.7201 50.606 43.7882 50.3966 44.8358C49.9916 46.8415 49.3094 48.8236 48.2125 50.8173L47.8111 51.5134C47.3177 52.2805 47.2949 52.3162 47.2709 52.3512C47.2688 52.3542 47.2667 52.3572 47.2643 52.3607C46.929 52.8265 46.8281 52.9717 46.7209 53.1131C46.6155 53.252 46.504 53.3871 46.158 53.8191C46.1143 53.8729 46.102 53.8866 45.9171 54.0929C45.8453 54.1731 45.7475 54.2823 45.6116 54.4343C45.3789 54.693 44.8318 55.2304 44.7383 55.3204C42.1039 57.756 39.0115 60.0931 34.8946 60.8522C39.1873 59.9795 42.4811 57.285 45.0848 54.5729C45.1384 54.5166 45.1664 54.488 45.1936 54.4589C45.253 54.3951 45.3085 54.3284 45.6195 53.962C45.7426 53.8141 45.7744 53.7798 45.8046 53.7444C45.8446 53.6974 45.8816 53.6484 46.123 53.3313C46.2804 53.1247 46.3406 53.0479 46.3976 52.9694C46.4726 52.8663 46.5423 52.7601 46.8198 52.3532C46.8612 52.292 46.8841 52.2593 46.9064 52.2262C46.9678 52.1349 47.024 52.0408 47.4497 51.3394L47.8275 50.6441C49.2906 47.8072 50.0659 44.6905 50.123 41.5342L50.1236 41.5333C50.1263 41.3875 50.2771 41.2907 50.4605 41.3178C50.6439 41.3448 50.7911 41.485 50.7884 41.6307C50.7891 41.6298 50.7885 41.6334 50.7879 41.6343Z" fill="white"/>
<path d="M50.7879 41.6343C50.7406 42.7201 50.606 43.7882 50.3966 44.8358C49.9916 46.8415 49.3094 48.8236 48.2125 50.8173L47.8111 51.5134C47.3177 52.2805 47.2949 52.3162 47.2709 52.3512C47.2688 52.3542 47.2667 52.3572 47.2643 52.3607C46.929 52.8265 46.8281 52.9717 46.7209 53.1131C46.6155 53.252 46.504 53.3871 46.158 53.8191C46.1143 53.8729 46.102 53.8866 45.9171 54.0929C45.8453 54.1731 45.7475 54.2823 45.6116 54.4343C45.3789 54.693 44.8318 55.2304 44.7383 55.3204C42.1039 57.756 39.0115 60.0931 34.8946 60.8522C39.1873 59.9795 42.4811 57.285 45.0848 54.5729C45.1384 54.5166 45.1664 54.488 45.1936 54.4589C45.253 54.3951 45.3085 54.3284 45.6195 53.962C45.7426 53.8141 45.7744 53.7798 45.8046 53.7444C45.8446 53.6974 45.8816 53.6484 46.123 53.3313C46.2804 53.1247 46.3406 53.0479 46.3976 52.9694C46.4726 52.8663 46.5423 52.7601 46.8198 52.3532C46.8612 52.292 46.8841 52.2593 46.9064 52.2262C46.9678 52.1349 47.024 52.0408 47.4497 51.3394L47.8275 50.6441C49.2906 47.8072 50.0659 44.6905 50.123 41.5342L50.1236 41.5333C50.1263 41.3875 50.2771 41.2907 50.4605 41.3178C50.6439 41.3448 50.7911 41.485 50.7884 41.6307C50.7891 41.6298 50.7885 41.6334 50.7879 41.6343Z" stroke="white"/>
</g>
<g id="I x3D 4 1">
<path d="M51.7516 43.6556C51.7202 45.7872 51.3398 47.862 50.6329 49.8183C49.9472 51.7252 48.8804 53.5959 47.4969 55.2352C47.2224 55.5533 47.1853 55.5961 47.1853 55.5961C47.1853 55.5961 47.2207 55.5552 47.1045 55.69C47.0745 55.7217 47.0402 55.7585 47.0015 55.8001C46.4506 56.3912 45.0081 57.939 42.316 59.3182C41.8032 59.5838 41.2637 59.8176 40.7267 60.0502C39.9528 60.3826 38.9558 60.7988 37.2326 61.0534C36.61 61.1455 35.9735 61.1995 35.3312 61.2301C36.6906 61.1395 37.7722 60.9711 39.0101 60.6034C39.5867 60.4311 40.1256 60.2009 40.654 59.96C40.6948 59.9412 40.7376 59.9216 40.7821 59.9013C41.6633 59.4979 43.245 58.7738 44.9808 57.344C47.1969 55.5169 49.1389 52.7421 50.1546 49.651C50.7973 47.7078 51.1163 45.6578 51.0926 43.5658L51.0933 43.5649C51.0914 43.4188 51.2373 43.3195 51.4193 43.3429C51.6014 43.3662 51.7502 43.5034 51.7521 43.6494C51.7522 43.652 51.7523 43.6546 51.7516 43.6556Z" fill="white"/>
<path d="M51.7516 43.6556C51.7202 45.7872 51.3398 47.862 50.6329 49.8183C49.9472 51.7252 48.8804 53.5959 47.4969 55.2352C47.2224 55.5533 47.1853 55.5961 47.1853 55.5961C47.1853 55.5961 47.2207 55.5552 47.1045 55.69C47.0745 55.7217 47.0402 55.7585 47.0015 55.8001C46.4506 56.3912 45.0081 57.939 42.316 59.3182C41.8032 59.5838 41.2637 59.8176 40.7267 60.0502C39.9528 60.3826 38.9558 60.7988 37.2326 61.0534C36.61 61.1455 35.9735 61.1995 35.3312 61.2301C36.6906 61.1395 37.7722 60.9711 39.0101 60.6034C39.5867 60.4311 40.1256 60.2009 40.654 59.96C40.6948 59.9412 40.7376 59.9216 40.7821 59.9013C41.6633 59.4979 43.245 58.7738 44.9808 57.344C47.1969 55.5169 49.1389 52.7421 50.1546 49.651C50.7973 47.7078 51.1163 45.6578 51.0926 43.5658L51.0933 43.5649C51.0914 43.4188 51.2373 43.3195 51.4193 43.3429C51.6014 43.3662 51.7502 43.5034 51.7521 43.6494C51.7522 43.652 51.7523 43.6546 51.7516 43.6556Z" stroke="white"/>
</g>
<g id="I x3D 3 1">
<path d="M52.6789 45.6641C52.7506 47.7768 52.4318 49.8364 51.7511 51.7658C50.4126 55.5943 47.4969 58.9614 43.0791 60.673C40.8945 61.5178 38.4052 61.8982 35.7963 61.5925C40.2961 62.0449 44.3685 60.444 47.1748 57.9558C47.3602 57.7877 47.8676 57.2976 47.8868 57.2757C47.9671 57.188 47.9895 57.1639 48.0257 57.1248C48.065 57.0825 48.1205 57.0226 48.2833 56.8456C49.6469 55.3212 50.6778 53.4891 51.2797 51.6018C51.8951 49.6909 52.1533 47.6612 52.0285 45.5963L52.0278 45.5947C52.0195 45.4487 52.1567 45.345 52.3374 45.3621C52.5174 45.3801 52.6698 45.5114 52.6793 45.658C52.6781 45.6599 52.6782 45.6625 52.6789 45.6641Z" fill="white"/>
<path d="M52.6789 45.6641C52.7506 47.7768 52.4318 49.8364 51.7511 51.7658C50.4126 55.5943 47.4969 58.9614 43.0791 60.673C40.8945 61.5178 38.4052 61.8982 35.7963 61.5925C40.2961 62.0449 44.3685 60.444 47.1748 57.9558C47.3602 57.7877 47.8676 57.2976 47.8868 57.2757C47.9671 57.188 47.9895 57.1639 48.0257 57.1248C48.065 57.0825 48.1205 57.0226 48.2833 56.8456C49.6469 55.3212 50.6778 53.4891 51.2797 51.6018C51.8951 49.6909 52.1533 47.6612 52.0285 45.5963L52.0278 45.5947C52.0195 45.4487 52.1567 45.345 52.3374 45.3621C52.5174 45.3801 52.6698 45.5114 52.6793 45.658C52.6781 45.6599 52.6782 45.6625 52.6789 45.6641Z" stroke="white"/>
</g>
<g id="I x3D 2 1">
<path d="M53.5128 47.688C53.6149 48.7385 53.599 49.7784 53.4793 50.7934C53.3608 51.8091 53.1298 52.8004 52.7964 53.7538C51.2878 58.0801 47.8796 60.9105 43.6941 62.0182C41.3635 62.6328 38.8114 62.6945 36.2918 61.9395C38.8122 62.6505 41.334 62.5452 43.6206 61.8924C47.6919 60.7279 50.9625 57.8855 52.3283 53.5927C52.6284 52.6513 52.8276 51.675 52.9181 50.6791C53.0086 49.6831 52.9966 48.6681 52.8719 47.6477C52.8536 47.5024 52.9836 47.3924 53.1604 47.4019C53.3373 47.4114 53.4956 47.5382 53.514 47.6836C53.5127 47.6829 53.5128 47.6855 53.5128 47.688Z" fill="white"/>
<path d="M53.5128 47.688C53.6149 48.7385 53.599 49.7784 53.4793 50.7934C53.3608 51.8091 53.1298 52.8004 52.7964 53.7538C51.2878 58.0801 47.8796 60.9105 43.6941 62.0182C41.3635 62.6328 38.8114 62.6945 36.2918 61.9395C38.8122 62.6505 41.334 62.5452 43.6206 61.8924C47.6919 60.7279 50.9625 57.8855 52.3283 53.5927C52.6284 52.6513 52.8276 51.675 52.9181 50.6791C53.0086 49.6831 52.9966 48.6681 52.8719 47.6477C52.8536 47.5024 52.9836 47.3924 53.1604 47.4019C53.3373 47.4114 53.4956 47.5382 53.514 47.6836C53.5127 47.6829 53.5128 47.6855 53.5128 47.688Z" stroke="white"/>
</g>
<g id="I x3D 1 1">
<path d="M54.1755 49.7259C54.3337 50.7658 54.3694 51.7986 54.2878 52.8081C54.2464 53.3125 54.176 53.8118 54.0772 54.3026C53.9752 54.7931 53.8447 55.275 53.6833 55.747C53.361 56.6901 52.9211 57.592 52.3551 58.4256C51.7879 59.2585 51.0947 60.0232 50.2817 60.6888C46.9984 63.3891 41.5512 64.3977 36.8194 62.2716C41.5418 64.3007 46.8792 63.2197 50.0362 60.4888C50.8122 59.8203 51.466 59.059 51.997 58.2324C52.5267 57.4051 52.9306 56.5147 53.2194 55.5869C53.3641 55.1225 53.4791 54.649 53.5644 54.1688C53.6484 53.6879 53.7034 53.1994 53.7307 52.7066C53.784 51.7202 53.7234 50.7161 53.5435 49.7102C53.5171 49.5653 53.6377 49.4503 53.8134 49.4537C53.9878 49.4564 54.1503 49.5765 54.176 49.7224C54.1755 49.7222 54.1753 49.7223 54.1751 49.7228C54.1749 49.7235 54.175 49.7249 54.1755 49.7259Z" fill="white"/>
<path d="M54.1755 49.7259C54.3337 50.7658 54.3694 51.7986 54.2878 52.8081C54.2464 53.3125 54.176 53.8118 54.0772 54.3026C53.9752 54.7931 53.8447 55.275 53.6833 55.747C53.361 56.6901 52.9211 57.592 52.3551 58.4256C51.7879 59.2585 51.0947 60.0232 50.2817 60.6888C46.9984 63.3891 41.5512 64.3977 36.8194 62.2716C41.5418 64.3007 46.8792 63.2197 50.0362 60.4888C50.8122 59.8203 51.466 59.059 51.997 58.2324C52.5267 57.4051 52.9306 56.5147 53.2194 55.5869C53.3641 55.1225 53.4791 54.649 53.5644 54.1688C53.6484 53.6879 53.7034 53.1994 53.7307 52.7066C53.784 51.7202 53.7234 50.7161 53.5435 49.7102C53.5171 49.5653 53.6377 49.4503 53.8134 49.4537C53.9878 49.4564 54.1503 49.5765 54.176 49.7224C54.1755 49.7222 54.1753 49.7223 54.1751 49.7228C54.1749 49.7235 54.175 49.7249 54.1755 49.7259Z" stroke="white"/>
</g>
<g id="I x3D 0 1">
<path d="M54.59 51.7876C55.0426 53.8369 55.0017 55.8937 54.4052 57.7703C54.1063 58.707 53.667 59.5978 53.0812 60.4045C52.4967 61.2119 51.7639 61.9354 50.9023 62.5389C48.2624 64.3945 44.4102 64.993 40.8243 64.0474C39.6111 63.7287 38.4337 63.2319 37.3755 62.5869C38.4476 63.2153 39.6275 63.6897 40.8364 63.9861C44.4663 64.8782 48.2058 64.1581 50.6731 62.3313C51.4942 61.7254 52.1854 61.0064 52.7304 60.2085C53.2766 59.4112 53.6791 58.5362 53.9437 57.6192C54.4715 55.7819 54.4573 53.7802 53.9693 51.8026C53.9332 51.6584 54.0438 51.537 54.2147 51.5324C54.3861 51.5268 54.5545 51.6399 54.5893 51.7835C54.5893 51.7835 54.5906 51.7867 54.59 51.7876Z" fill="white"/>
<path d="M54.59 51.7876C55.0426 53.8369 55.0017 55.8937 54.4052 57.7703C54.1063 58.707 53.667 59.5978 53.0812 60.4045C52.4967 61.2119 51.7639 61.9354 50.9023 62.5389C48.2624 64.3945 44.4102 64.993 40.8243 64.0474C39.6111 63.7287 38.4337 63.2319 37.3755 62.5869C38.4476 63.2153 39.6275 63.6897 40.8364 63.9861C44.4663 64.8782 48.2058 64.1581 50.6731 62.3313C51.4942 61.7254 52.1854 61.0064 52.7304 60.2085C53.2766 59.4112 53.6791 58.5362 53.9437 57.6192C54.4715 55.7819 54.4573 53.7802 53.9693 51.8026C53.9332 51.6584 54.0438 51.537 54.2147 51.5324C54.3861 51.5268 54.5545 51.6399 54.5893 51.7835C54.5893 51.7835 54.5906 51.7867 54.59 51.7876Z" stroke="white"/>
</g>
</g>
</g>
</svg>
